<svg xmlns="http://www.w3.org/2000/svg" viewBox="0 0 16.933 16.933" height="64" width="64"><g style="display:inline"><g transform="matrix(1.50898 0 0 1.50898 -28.492 -43.537)"><path d="m 29.589335,36.360075 c 0,2.361307 -2.58638,3.426303 -5.068768,3.434277 -2.539506,0.0081 -5.303458,-1.160204 -5.116016,-3.654295 0.112142,-1.492102 0.653638,-2.942041 1.950787,-3.78076 0.822257,-0.531659 2.195459,-0.755887 3.165229,-0.787112 0.906181,-0.02917 2.247713,0.137541 3.080524,0.710013 1.346155,0.925338 1.988244,2.61907 1.988244,4.077877 z" style="opacity:1;vector-effect:none;fill:#ff5959;fill-opacity:1;stroke:#000;stroke-width:.38979158;stroke-linecap:round;stroke-linejoin:round;stroke-miterlimit:4;stroke-dasharray:none;stroke-dashoffset:0;stroke-opacity:1;paint-order:fill markers stroke"/><path d="m 22.588259,35.71905 c 0,0 0.607238,-0.788114 1.240309,-0.865634 0.633077,-0.07752 1.238159,-0.103362 1.632213,0.07752 0.394056,0.180879 0.990481,0.732134 0.990481,0.732134 l 0.867895,0.566415 c 0,0 0.173577,0.30148 0.146173,0.66691 -0.0274,0.36543 -0.109622,0.776539 -0.557281,1.096289 -0.447652,0.319751 -1.132878,0.8013 -2.11479,0.904658 -0.981913,0.103362 -2.312661,-0.529715 -2.635657,-0.865633 -0.322998,-0.335917 -0.723516,-0.697674 -0.594317,-1.369507 0.129203,-0.671835 0.40052,-0.723514 0.40052,-0.723514 z" style="fill:#ffd99a;fill-opacity:1;stroke:none;stroke-width:.38979158px;stroke-linecap:butt;stroke-linejoin:miter;stroke-opacity:1"/><rect ry="0" y="35.553" x="23.394" height="1.105" width="2.222" style="opacity:1;vector-effect:none;fill:#8b193a;fill-opacity:1;stroke:none;stroke-width:.40679973;stroke-linecap:round;stroke-linejoin:round;stroke-miterlimit:4;stroke-dasharray:none;stroke-dashoffset:0;stroke-opacity:1;paint-order:fill markers stroke"/><ellipse ry=".824" rx="1.208" cy="37.062" cx="24.511" style="opacity:1;vector-effect:none;fill:#fd4e56;fill-opacity:1;stroke:none;stroke-width:.42405745;stroke-linecap:round;stroke-linejoin:round;stroke-miterlimit:4;stroke-dasharray:none;stroke-dashoffset:0;stroke-opacity:1;paint-order:fill markers stroke"/><path d="m 23.582638,37.441493 c 0.289773,0.501903 0.623446,0.532089 0.912656,0.537443 0.316458,0.0059 0.728644,-0.159094 0.966171,-0.561066 0.237531,-0.401972 0.394406,-1.479989 0.06551,-1.97332 -0.328886,-0.493329 -0.184934,0.08471 -0.464355,0.22461 -0.243666,0.07259 -0.916043,0.05189 -1.167159,-0.01827 -0.216344,-0.12023 -0.184108,-0.577731 -0.377433,-0.242881 -0.399303,0.809713 -0.284169,1.501654 0.0646,2.033482 z" style="fill:none;stroke:#000;stroke-width:.38979158;stroke-linecap:round;stroke-linejoin:round;stroke-miterlimit:4;stroke-dasharray:none;stroke-opacity:1"/><path d="m 20.897909,30.673833 -0.607233,0.01937 0.665374,1.550387 1.524545,0.322996 1.193402,-0.630908 L 23.07491,30.9193 Z" style="fill:#52875b;fill-opacity:1;stroke:none;stroke-width:.38979158;stroke-linecap:butt;stroke-linejoin:miter;stroke-miterlimit:4;stroke-dasharray:none;stroke-opacity:1"/><path d="m 20.68904,30.800878 c 0,0 0.516792,0.865632 1.12403,0.943152 0.607232,0.07752 0.865629,0 0.968991,-0.02584 0.103361,-0.02584 0.245478,-0.180878 0.219634,-0.297157 -0.02584,-0.116282 -0.219634,-0.180879 -0.232556,-0.245478 -0.01297,-0.0646 0.005,-0.129085 0.06436,-0.147351 0.05939,-0.01827 0.415674,0.173579 0.415674,0.173579 l 0.0091,-0.790241 -1.091721,-0.190328 z" style="fill:#a8c930;fill-opacity:1;stroke:none;stroke-width:.38979158;stroke-linecap:butt;stroke-linejoin:miter;stroke-miterlimit:4;stroke-dasharray:none;stroke-opacity:1"/><path style="fill:#52875b;fill-opacity:1;stroke:none;stroke-width:.38979158;stroke-linecap:butt;stroke-linejoin:miter;stroke-miterlimit:4;stroke-dasharray:none;stroke-opacity:1" d="m 28.120982,30.673833 0.607233,0.01937 -0.665374,1.550387 -1.524545,0.322996 -1.193402,-0.630908 0.599087,-1.016378 z"/><path style="fill:#a8c930;fill-opacity:1;stroke:none;stroke-width:.38979158;stroke-linecap:butt;stroke-linejoin:miter;stroke-miterlimit:4;stroke-dasharray:none;stroke-opacity:1" d="m 28.329852,30.800878 c 0,0 -0.516793,0.865632 -1.124031,0.943152 -0.607232,0.07752 -0.865629,0 -0.96899,-0.02584 -0.103362,-0.02584 -0.245479,-0.180878 -0.219635,-0.297157 0.02584,-0.116282 0.219635,-0.180879 0.232556,-0.245478 0.01297,-0.0646 -0.005,-0.129085 -0.06437,-0.147351 -0.05939,-0.01827 -0.415674,0.173579 -0.415674,0.173579 l -0.0091,-0.790241 1.091721,-0.190328 z"/><path d="m 24.482506,29.193443 -1.103901,1.085629 -0.0274,1.269868 1.131979,0.944444 1.124549,-0.97185 0.06395,-1.251597 z" style="fill:#52875b;fill-opacity:1;stroke:none;stroke-width:.38979158;stroke-linecap:butt;stroke-linejoin:miter;stroke-miterlimit:4;stroke-dasharray:none;stroke-opacity:1"/><path d="m 24.864685,29.599983 c 0,0 0.319754,0.539009 0.328886,0.886166 0.0091,0.347159 -0.04567,0.502467 -0.127905,0.593825 -0.08222,0.09136 -0.264937,0.237528 -0.520738,0.237528 -0.255801,0 -0.465921,-0.07309 -0.566415,-0.155307 -0.100489,-0.08222 -0.31366,-0.301479 -0.304523,-0.575552 0.0091,-0.274072 0.03652,-0.415676 0.08222,-0.516169 0.04568,-0.100489 0.118771,-0.30148 0.118771,-0.30148 l 0.607526,-0.575551 z" style="fill:#a8c930;fill-opacity:1;stroke:none;stroke-width:.38979158;stroke-linecap:butt;stroke-linejoin:miter;stroke-miterlimit:4;stroke-dasharray:none;stroke-opacity:1"/><path d="m 23.268708,30.891316 c -0.02584,-1.03359 1.214468,-1.731264 1.214468,-1.731264 0,0 1.24031,0.697674 1.214469,1.731264 -0.02584,1.033592 -1.214469,1.602068 -1.214469,1.602068 0,0 -1.188628,-0.568476 -1.214468,-1.602068 z" style="fill:none;stroke:#000;stroke-width:.38979158;stroke-linecap:butt;stroke-linejoin:miter;stroke-miterlimit:4;stroke-dasharray:none;stroke-opacity:1"/><path d="M23.345 30.474c0 0-.512-.256-1.041-.219-.53.037-1.352.53-1.553.457-.201-.073-.384-.292-.42-.183-.037.11-.214.596.512 1.443.381.444 1.206.64 1.663.548.457-.091 1.297-.594 1.297-.594M25.674 30.474c0 0 .512-.256 1.041-.219.53.037 1.352.53 1.553.457.201-.073.384-.292.42-.183.037.11.214.596-.512 1.443-.381.444-1.206.64-1.663.548-.457-.091-1.297-.594-1.297-.594" style="fill:none;stroke:#000;stroke-width:.38979158;stroke-linecap:butt;stroke-linejoin:miter;stroke-miterlimit:4;stroke-dasharray:none;stroke-opacity:1"/><circle r=".807" cy="35.441" cx="21.88" style="opacity:1;vector-effect:none;fill:#41090a;fill-opacity:1;stroke:none;stroke-width:.42003402;stroke-linecap:round;stroke-linejoin:round;stroke-miterlimit:4;stroke-dasharray:none;stroke-dashoffset:0;stroke-opacity:1;paint-order:fill markers stroke"/><ellipse ry=".265" rx=".271" cy="35.071" cx="22.27" style="opacity:1;vector-effect:none;fill:#fff;fill-opacity:1;stroke:none;stroke-width:.38979158;stroke-linecap:round;stroke-linejoin:round;stroke-miterlimit:4;stroke-dasharray:none;stroke-dashoffset:0;stroke-opacity:1;paint-order:fill markers stroke"/><circle style="opacity:1;vector-effect:none;fill:#41090a;fill-opacity:1;stroke:none;stroke-width:.42003402;stroke-linecap:round;stroke-linejoin:round;stroke-miterlimit:4;stroke-dasharray:none;stroke-dashoffset:0;stroke-opacity:1;paint-order:fill markers stroke" cx="27.19" cy="35.428" r=".807"/><ellipse ry=".265" rx=".273" cy="35.071" cx="26.83" style="opacity:1;vector-effect:none;fill:#fff;fill-opacity:1;stroke:none;stroke-width:.47004279;stroke-linecap:round;stroke-linejoin:round;stroke-miterlimit:4;stroke-dasharray:none;stroke-dashoffset:0;stroke-opacity:1;paint-order:fill markers stroke"/><ellipse transform="matrix(.69374 .72023 -.75145 .6598 0 0)" ry=".445" rx=".382" cy="7.838" cx="44.145" style="opacity:1;vector-effect:none;fill:#fd807a;fill-opacity:1;stroke:none;stroke-width:.22761856;stroke-linecap:round;stroke-linejoin:round;stroke-miterlimit:4;stroke-dasharray:none;stroke-dashoffset:0;stroke-opacity:1;paint-order:fill markers stroke"/><ellipse style="opacity:1;vector-effect:none;fill:#fd807a;fill-opacity:1;stroke:none;stroke-width:.22761856;stroke-linecap:round;stroke-linejoin:round;stroke-miterlimit:4;stroke-dasharray:none;stroke-dashoffset:0;stroke-opacity:1;paint-order:fill markers stroke" cx="11.778" cy="43.18" rx=".382" ry=".445" transform="matrix(-.69374 .72023 .75145 .6598 0 0)"/><ellipse transform="matrix(.78871 .61476 -.60114 .79915 0 0)" ry=".368" rx=".262" cy="12.805" cx="38.196" style="opacity:1;vector-effect:none;fill:#f6fbce;fill-opacity:1;stroke:none;stroke-width:.44736335;stroke-linecap:round;stroke-linejoin:round;stroke-miterlimit:4;stroke-dasharray:none;stroke-dashoffset:0;stroke-opacity:1;paint-order:fill markers stroke"/><ellipse style="opacity:1;vector-effect:none;fill:#f6fbce;fill-opacity:1;stroke:none;stroke-width:.44736335;stroke-linecap:round;stroke-linejoin:round;stroke-miterlimit:4;stroke-dasharray:none;stroke-dashoffset:0;stroke-opacity:1;paint-order:fill markers stroke" cx="37.087" cy="14.161" rx=".262" ry=".368" transform="matrix(.78871 .61476 -.60114 .79915 0 0)"/><ellipse transform="matrix(.8735 .48684 -.34209 .93967 0 0)" ry=".284" rx=".194" cy="21.474" cx="31.932" style="opacity:1;vector-effect:none;fill:#f6fbce;fill-opacity:1;stroke:none;stroke-width:.33829439;stroke-linecap:round;stroke-linejoin:round;stroke-miterlimit:4;stroke-dasharray:none;stroke-dashoffset:0;stroke-opacity:1;paint-order:fill markers stroke"/><ellipse style="opacity:1;vector-effect:none;fill:#f6fbce;fill-opacity:1;stroke:none;stroke-width:.31206498;stroke-linecap:round;stroke-linejoin:round;stroke-miterlimit:4;stroke-dasharray:none;stroke-dashoffset:0;stroke-opacity:1;paint-order:fill markers stroke" cx="39.15" cy="6.179" rx=".182" ry=".257" transform="matrix(.66846 .74375 -.73217 .68112 0 0)"/><ellipse style="opacity:1;vector-effect:none;fill:#f6fbce;fill-opacity:1;stroke:none;stroke-width:.36634991;stroke-linecap:round;stroke-linejoin:round;stroke-miterlimit:4;stroke-dasharray:none;stroke-dashoffset:0;stroke-opacity:1;paint-order:fill markers stroke" cx="24.465" cy="33.117" rx=".23" ry=".281" transform="matrix(.9999 .01414 .00105 1 0 0)"/><ellipse transform="matrix(.90886 .4171 -.40324 .9151 0 0)" ry=".281" rx=".23" cy="21.052" cx="35.53" style="opacity:1;vector-effect:none;fill:#f6fbce;fill-opacity:1;stroke:none;stroke-width:.36634991;stroke-linecap:round;stroke-linejoin:round;stroke-miterlimit:4;stroke-dasharray:none;stroke-dashoffset:0;stroke-opacity:1;paint-order:fill markers stroke"/><ellipse style="opacity:1;vector-effect:none;fill:#f6fbce;fill-opacity:1;stroke:none;stroke-width:.36634991;stroke-linecap:round;stroke-linejoin:round;stroke-miterlimit:4;stroke-dasharray:none;stroke-dashoffset:0;stroke-opacity:1;paint-order:fill markers stroke" cx="34.803" cy="20.455" rx=".23" ry=".281" transform="matrix(.90886 .4171 -.40324 .9151 0 0)"/><ellipse transform="matrix(.91152 -.41127 .42507 .90516 0 0)" ry=".281" rx=".23" cy="40.965" cx="9.106" style="opacity:1;vector-effect:none;fill:#f6fbce;fill-opacity:1;stroke:none;stroke-width:.36634991;stroke-linecap:round;stroke-linejoin:round;stroke-miterlimit:4;stroke-dasharray:none;stroke-dashoffset:0;stroke-opacity:1;paint-order:fill markers stroke"/><ellipse style="opacity:1;vector-effect:none;fill:#f6fbce;fill-opacity:1;stroke:none;stroke-width:.36634991;stroke-linecap:round;stroke-linejoin:round;stroke-miterlimit:4;stroke-dasharray:none;stroke-dashoffset:0;stroke-opacity:1;paint-order:fill markers stroke" cx="8.777" cy="42.208" rx=".23" ry=".281" transform="matrix(.91152 -.41127 .42507 .90516 0 0)"/><ellipse transform="matrix(.85383 -.52056 .50314 .8642 0 0)" ry=".359" rx=".284" cy="42.627" cx="6.002" style="opacity:1;vector-effect:none;fill:#f6fbce;fill-opacity:1;stroke:none;stroke-width:.46034202;stroke-linecap:round;stroke-linejoin:round;stroke-miterlimit:4;stroke-dasharray:none;stroke-dashoffset:0;stroke-opacity:1;paint-order:fill markers stroke"/><ellipse style="opacity:1;vector-effect:none;fill:#f6fbce;fill-opacity:1;stroke:none;stroke-width:.43111175;stroke-linecap:round;stroke-linejoin:round;stroke-miterlimit:4;stroke-dasharray:none;stroke-dashoffset:0;stroke-opacity:1;paint-order:fill markers stroke" cx="-1.946" cy="44.19" rx=".266" ry=".336" transform="matrix(.7157 -.69842 .67097 .74148 0 0)"/><ellipse transform="matrix(.93073 -.3657 .3304 .94384 0 0)" ry=".231" rx=".183" cy="43.165" cx="15.494" style="opacity:1;vector-effect:none;fill:#f6fbce;fill-opacity:1;stroke:none;stroke-width:.29621553;stroke-linecap:round;stroke-linejoin:round;stroke-miterlimit:4;stroke-dasharray:none;stroke-dashoffset:0;stroke-opacity:1;paint-order:fill markers stroke"/><ellipse style="opacity:1;vector-effect:none;fill:#f6fbce;fill-opacity:1;stroke:none;stroke-width:.34755445;stroke-linecap:round;stroke-linejoin:round;stroke-miterlimit:4;stroke-dasharray:none;stroke-dashoffset:0;stroke-opacity:1;paint-order:fill markers stroke" cx="15.061" cy="43.662" rx=".214" ry=".271" transform="matrix(.93073 -.3657 .3304 .94384 0 0)"/><ellipse transform="matrix(.94948 -.31383 .33007 .94396 0 0)" ry=".368" rx=".262" cy="41.762" cx="7.025" style="opacity:1;vector-effect:none;fill:#f6fbce;fill-opacity:1;stroke:none;stroke-width:.44736335;stroke-linecap:round;stroke-linejoin:round;stroke-miterlimit:4;stroke-dasharray:none;stroke-dashoffset:0;stroke-opacity:1;paint-order:fill markers stroke"/><ellipse style="opacity:1;vector-effect:none;fill:#f6fbce;fill-opacity:1;stroke:none;stroke-width:.33829439;stroke-linecap:round;stroke-linejoin:round;stroke-miterlimit:4;stroke-dasharray:none;stroke-dashoffset:0;stroke-opacity:1;paint-order:fill markers stroke" cx="-13.089" cy="44.705" rx=".194" ry=".284" transform="matrix(.79482 -.60685 .72526 .68848 0 0)"/><ellipse transform="matrix(-.78871 -.61476 .60114 -.79915 0 0)" ry=".368" rx=".262" cy="-12.006" cx="-45.142" style="opacity:1;vector-effect:none;fill:#f6fbce;fill-opacity:1;stroke:none;stroke-width:.44736335;stroke-linecap:round;stroke-linejoin:round;stroke-miterlimit:4;stroke-dasharray:none;stroke-dashoffset:0;stroke-opacity:1;paint-order:fill markers stroke"/><ellipse style="opacity:1;vector-effect:none;fill:#f6fbce;fill-opacity:1;stroke:none;stroke-width:.46034202;stroke-linecap:round;stroke-linejoin:round;stroke-miterlimit:4;stroke-dasharray:none;stroke-dashoffset:0;stroke-opacity:1;paint-order:fill markers stroke" cx="42.712" cy="-19.055" rx=".284" ry=".359" transform="matrix(.85383 .52056 .50314 -.8642 0 0)"/></g></g></svg>