<svg xmlns="http://www.w3.org/2000/svg" viewBox="0 0 67.733 67.733" height="256" width="256"><g style="display:inline"><path style="display:inline;fill:#b1da33;fill-opacity:1;stroke:none;stroke-width:.27656803px;stroke-linecap:butt;stroke-linejoin:miter;stroke-opacity:1" d="m 33.73999,5.7539201 -3.030581,3.8012818 0.505095,4.2112261 4.906655,-0.07454 c 1.159677,-1.018569 0.854365,-2.64755 0.974115,-4.0994226 C 36.412344,8.2585131 35.1666,6.9949124 33.73999,5.7539201 Z"/><path d="m 21.705832,10.437393 -1.20957,5.278793 c 0.369219,0.898497 0.378629,1.9769 1.613583,2.44253 l 2.473294,-0.02248 2.55106,-2.095979 0.121082,-2.061669 -1.525296,-1.743432 z" style="fill:#b1da33;fill-opacity:1;stroke:none;stroke-width:.23948845px;stroke-linecap:butt;stroke-linejoin:miter;stroke-opacity:1"/><path d="m 21.691822,10.977918 c 0,0 1.079119,1.325438 1.696904,2.471786 0.617785,1.146348 0.589851,1.930067 0.589851,1.930067 0,0 0.756023,0.299669 0.680987,0.744666 -0.07504,0.444998 0.01941,0.610453 0.01941,0.610453 l 0.409252,0.716971" style="fill:none;stroke:#4a0;stroke-width:.23948845px;stroke-linecap:butt;stroke-linejoin:miter;stroke-opacity:1"/><path d="M23.878 14.749C21.203 13.458 21.127 13.734 21.127 13.734M23.979 15.38c0 0-2.593-.423-2.961-.162M24.659 16.753c0 0-1.026-.164-1.223-.125-.197.039-.703.017-.703.017-.464-.067-1.016-.371-1.016-.371" style="fill:none;stroke:#4a0;stroke-width:.23948845px;stroke-linecap:round;stroke-linejoin:miter;stroke-opacity:1"/><path d="m 26.814534,16.571528 c 0,0 0.713687,-1.648288 0.535604,-1.960273 -0.178084,-0.311984 -0.455917,-1.704531 -1.525095,-2.128325 -1.069178,-0.423794 -2.472432,-1.070531 -3.140584,-1.516417 -0.668152,-0.445885 -1.235878,-1.259322 -1.102653,-0.301277 0.133224,0.958045 -0.792022,2.416866 -0.893124,4.23253 -0.101102,1.815664 0.678183,2.818569 1.134776,3.074986 0.456592,0.256418 1.681763,0.591171 2.584241,0.179436 0.902478,-0.411733 2.406835,-1.58066 2.406835,-1.58066 z" style="fill:none;stroke:#000;stroke-width:.52916667;stroke-linecap:round;stroke-linejoin:round;stroke-miterlimit:4;stroke-dasharray:none;stroke-opacity:1"/><path d="M24.659 15.899c0 0 .713-.48.739-.659.026-.179.243-.888.243-.888M24.008 15.046c.011.008.479-.517.475-1.057.128-.384.136-.498.136-.498" style="fill:none;stroke:#4a0;stroke-width:.23948845px;stroke-linecap:round;stroke-linejoin:miter;stroke-opacity:1"/><path d="m 62.25101,16.712364 -0.263521,6.350852 c -0.732278,0.828887 -1.008655,1.918289 -2.582504,2.266278 l -2.793321,-0.790562 -2.239926,-3.16225 0.500689,-2.371687 2.266279,-1.502068 z" style="fill:#b1da33;fill-opacity:1;stroke:none;stroke-width:.28108886px;stroke-linecap:butt;stroke-linejoin:miter;stroke-opacity:1"/><path d="m 62.340039,16.978838 c 0,0 -1.872187,1.516684 -2.92627,2.62347 -1.054083,1.106788 -1.2649,2.002759 -1.2649,2.002759 0,0 -0.948675,0.10541 -1.001379,0.63245 -0.0527,0.527041 -0.210817,0.685154 -0.210817,0.685154 L 56.005966,23.8183" style="fill:none;stroke:#4a0;stroke-width:.28108886px;stroke-linecap:butt;stroke-linejoin:miter;stroke-opacity:1"/><path d="M58.458 20.922c3.429-.634 3.429-.298 3.429-.298M58.149 21.605c0 0 3.066.323 3.402.733M56.954 22.949c0 0 1.212.132 1.423.237.211.105.791.237.791.237.546.067 1.265-.105 1.265-.105" style="fill:none;stroke:#4a0;stroke-width:.28108886px;stroke-linecap:round;stroke-linejoin:miter;stroke-opacity:1"/><path d="m 54.569316,22.077072 c 0,0 -0.29814,-2.086978 0,-2.385118 0.298139,-0.29814 1.043489,-1.788838 2.385118,-1.937909 1.341629,-0.149069 3.130467,-0.447209 4.024887,-0.745349 0.894419,-0.298139 1.788838,-1.043489 1.341629,0 -0.44721,1.043489 0.14907,2.981398 -0.29814,5.068376 -0.44721,2.086979 -1.639769,2.981398 -2.236048,3.130467 -0.59628,0.149071 -2.086978,0.149071 -2.981398,-0.596279 -0.894419,-0.745349 -2.236048,-2.534188 -2.236048,-2.534188 z" style="fill:none;stroke:#000;stroke-width:.5291667;stroke-linecap:round;stroke-linejoin:round;stroke-miterlimit:4;stroke-dasharray:none;stroke-opacity:1"/><path d="M57.218 21.983c0 0-.659-.764-.632-.975.026-.211 0-1.08 0-1.08M58.219 21.219c-.015.005-.383-.733-.211-1.344-.026-.474 0-.606 0-.606" style="fill:none;stroke:#4a0;stroke-width:.28108886px;stroke-linecap:round;stroke-linejoin:miter;stroke-opacity:1"/><path style="fill:#b1da33;fill-opacity:1;stroke:none;stroke-width:.23948845px;stroke-linecap:butt;stroke-linejoin:miter;stroke-opacity:1" d="m 47.074452,9.5429741 1.20957,5.2787929 c -0.402548,0.881833 -0.518286,1.907072 -1.613583,2.44253 l -2.473294,-0.02248 -2.55106,-2.095979 -0.121082,-2.06167 1.525296,-1.743432 z"/><path style="fill:none;stroke:#4a0;stroke-width:.23948845px;stroke-linecap:butt;stroke-linejoin:miter;stroke-opacity:1" d="m 47.088462,10.118578 c 0,0 -1.079119,1.290359 -1.696904,2.436706 -0.617785,1.146349 -0.589851,1.930068 -0.589851,1.930068 0,0 -0.756023,0.299669 -0.680987,0.744665 0.07504,0.444999 -0.01941,0.610454 -0.01941,0.610454 l -0.409252,0.716971"/><path style="fill:none;stroke:#4a0;stroke-width:.23948845px;stroke-linecap:round;stroke-linejoin:miter;stroke-opacity:1" d="M44.902 13.854c2.676-1.291 2.751-1.015 2.751-1.015M44.802 14.485c0 0 2.593-.423 2.961-.162M44.122 15.858c0 0 1.026-.164 1.223-.125.197.039.703.017.703.017.464-.067 1.016-.371 1.016-.371"/><path style="fill:none;stroke:#000;stroke-width:.52916667;stroke-linecap:round;stroke-linejoin:round;stroke-miterlimit:4;stroke-dasharray:none;stroke-opacity:1" d="m 41.96575,15.677109 c 0,0 -0.713687,-1.648288 -0.535604,-1.960273 0.178084,-0.311985 0.455917,-1.704531 1.525095,-2.128326 1.069178,-0.423793 2.472432,-1.07053 3.140584,-1.516416 0.668152,-0.4458852 1.235878,-1.2593222 1.102653,-0.3012768 -0.133224,0.9580448 0.792022,2.4168658 0.893124,4.2325298 0.101102,1.815664 -0.678183,2.818568 -1.134776,3.074986 -0.456592,0.256418 -1.681763,0.591171 -2.584241,0.179436 -0.902478,-0.411733 -2.406835,-1.58066 -2.406835,-1.58066 z"/><path style="fill:none;stroke:#4a0;stroke-width:.23948845px;stroke-linecap:round;stroke-linejoin:miter;stroke-opacity:1" d="M44.121 15.005c0 0-.713-.48-.739-.659C43.357 14.166 43.14 13.458 43.14 13.458M44.773 14.152c-.011.008-.479-.517-.475-1.057-.128-.384-.136-.498-.136-.498"/><path style="display:inline;fill:none;stroke:#4a0;stroke-width:.28108886;stroke-linecap:round;stroke-linejoin:miter;stroke-miterlimit:4;stroke-dasharray:none;stroke-opacity:1" d="m 33.870046,13.67393 c 0.01656,-2.483175 -0.201545,-5.2239972 -0.0063,-7.6178111"/><path style="display:inline;fill:none;stroke:#4a0;stroke-width:.28108886px;stroke-linecap:round;stroke-linejoin:miter;stroke-opacity:1" d="M33.902 10.214c0 0-.708.186-.894-.149-.186-.335-1.006-.522-1.006-.783 0-.261-.335-.82-.335-.82M33.902 10.214c0 0 .708.186.894-.149.186-.335 1.006-.522 1.006-.783 0-.261.335-.82.335-.82M33.865 12.561c0 0-.41-.559-.745-.634-.335-.075-1.006-.596-1.379-1.155-.373-.559-.745-.82-.745-.82M33.865 12.561c0 0 .41-.559.745-.634.335-.075 1.006-.596 1.379-1.155.373-.559.745-.82.745-.82"/><path style="display:inline;fill:none;stroke:#000;stroke-width:.52916667;stroke-linecap:round;stroke-linejoin:round;stroke-miterlimit:4;stroke-dasharray:none;stroke-opacity:1" d="m 33.839876,5.7539201 c 0,0 -3.167736,2.4596531 -3.0932,4.7702359 0.07454,2.310585 0.260873,2.944132 0.633547,3.093202 0.372675,0.14907 4.670125,0.155464 5.117334,-0.10541 0.670466,-1.493431 0.684047,-2.324538 0.58614,-3.358462 C 36.93644,8.6497603 34.2695,5.7473584 33.839876,5.753919 Z"/><path d="M 1.511769,42.740641 3.4361982,46.985074 5.814405,47.815817 7.4958452,46.510804 8.1493538,43.74577 7.1572468,42.271265 5.2040032,41.873073 Z" style="fill:#b1da33;fill-opacity:1;stroke:none;stroke-width:.2060888px;stroke-linecap:butt;stroke-linejoin:miter;stroke-opacity:1"/><path d="m 1.7412627,43.092841 c 0,0 1.4726062,0.369825 2.4932573,0.832461 1.020651,0.462637 1.4101753,1.013718 1.4101753,1.013718 0,0 0.6738093,-0.189059 0.8544717,0.154701 0.1806638,0.343761 0.3315887,0.407782 0.3315887,0.407782 l 0.6540083,0.277429" style="fill:none;stroke:#4a0;stroke-width:.2060888px;stroke-linecap:butt;stroke-linejoin:miter;stroke-opacity:1"/><path d="M5.247 44.559C2.742 45.071 2.835 45.299 2.835 45.299M5.645 44.939c0 0-1.996 1.062-2.111 1.433M6.826 45.524c0 0-.788.423-.902.552-.114.13-.472.378-.472.378-.353.196-.889.276-.889.276" style="fill:none;stroke:#4a0;stroke-width:.2060888px;stroke-linecap:round;stroke-linejoin:miter;stroke-opacity:1"/><path d="m 8.207532,44.276142 c 0,0 -0.3708782,-1.500511 -0.6554653,-1.621232 -0.2845871,-0.12072 -1.2008881,-0.929157 -2.1537973,-0.661785 -0.9529096,0.267372 -2.2507662,0.556317 -2.9406614,0.599463 -0.6898949,0.04315 -1.50268991,-0.21769 -0.9119428,0.368699 0.590747,0.586389 0.7180046,2.067506 1.5955178,3.363184 0.8775129,1.295678 1.9339283,1.575907 2.3802024,1.513368 C 5.96766,47.7753 6.9809298,47.365634 7.3840586,46.613199 7.7871878,45.860765 8.207532,44.276142 8.207532,44.276142 Z" style="fill:none;stroke:#000;stroke-width:.52916667;stroke-linecap:round;stroke-linejoin:round;stroke-miterlimit:4;stroke-dasharray:none;stroke-opacity:1"/><path d="M6.381 44.94c0 0 .238-.701.162-.837-.076-.136-.297-.734-.297-.734M5.491 44.696c.012-.001.059-.604-.226-.971C5.152 43.394 5.098 43.312 5.098 43.312" style="fill:none;stroke:#4a0;stroke-width:.2060888px;stroke-linecap:round;stroke-linejoin:miter;stroke-opacity:1"/><path style="fill:#b1da33;fill-opacity:1;stroke:none;stroke-width:.2060888px;stroke-linecap:butt;stroke-linejoin:miter;stroke-opacity:1" d="m 66.221563,42.732865 -1.924429,4.244433 -2.378207,0.830743 -1.68144,-1.305013 -0.653509,-2.765034 0.992107,-1.474505 1.953244,-0.398192 z"/><path style="fill:none;stroke:#4a0;stroke-width:.2060888px;stroke-linecap:butt;stroke-linejoin:miter;stroke-opacity:1" d="m 65.886832,43.085065 c 0,0 -1.367369,0.369825 -2.38802,0.832461 -1.020651,0.462637 -1.410175,1.013718 -1.410175,1.013718 0,0 -0.67381,-0.189059 -0.854472,0.154701 -0.180664,0.343761 -0.331589,0.407782 -0.331589,0.407782 l -0.654008,0.277429"/><path style="fill:none;stroke:#4a0;stroke-width:.2060888px;stroke-linecap:round;stroke-linejoin:miter;stroke-opacity:1" d="M62.486 44.552c2.505.512 2.412.74 2.412.74M62.089 44.931c0 0 1.996 1.062 2.111 1.433M60.907 45.516c0 0 .788.423.902.552.114.13.472.378.472.378.353.196.889.276.889.276"/><path style="fill:none;stroke:#000;stroke-width:.52916667;stroke-linecap:round;stroke-linejoin:round;stroke-miterlimit:4;stroke-dasharray:none;stroke-opacity:1" d="m 59.5258,44.268366 c 0,0 0.370878,-1.500511 0.655465,-1.621232 0.284587,-0.12072 1.200888,-0.929157 2.153798,-0.661785 0.952909,0.267372 2.250766,0.556317 2.940661,0.599463 0.689895,0.04315 1.50269,-0.21769 0.911943,0.368699 -0.590747,0.586389 -0.718005,2.067506 -1.595518,3.363184 -0.877513,1.295678 -1.933928,1.575907 -2.380202,1.513368 -0.446275,-0.06254 -1.459545,-0.472205 -1.862674,-1.22464 C 59.946144,45.852989 59.5258,44.268366 59.5258,44.268366 Z"/><path style="fill:none;stroke:#4a0;stroke-width:.2060888px;stroke-linecap:round;stroke-linejoin:miter;stroke-opacity:1" d="M61.352 44.932c0 0-.238-.701-.162-.837.076-.136.297-.734.297-.734M62.243 44.688c-.012-.001-.059-.604.226-.971.112-.33.167-.412.167-.412"/><path d="m 50.631939,61.758385 0.359093,-5.145459 C 50.499926,55.926221 50.216267,55.239515 49.112311,54.55281 l -2.323871,0.386146 -2.091044,2.348638 0.190323,1.957749 1.69248,1.415344 z" style="fill:#b1da33;fill-opacity:1;stroke:none;stroke-width:.22809581px;stroke-linecap:butt;stroke-linejoin:miter;stroke-opacity:1"/><path d="m 50.528209,61.237496 c 0,0 -1.17383,-1.07766 -1.924294,-2.065119 -0.750464,-0.987459 -0.839838,-1.729003 -0.839838,-1.729003 0,0 -0.755586,-0.170396 -0.750653,-0.600179 0.0049,-0.429785 -0.108349,-0.571528 -0.108349,-0.571528 l -0.490884,-0.614221" style="fill:none;stroke:#4a0;stroke-width:.22809581px;stroke-linecap:butt;stroke-linejoin:miter;stroke-opacity:1"/><path d="M47.952 58.022c2.708.82 2.738.549 2.738.549M47.764 57.443c0 0 2.502.016 2.809-.285M46.922 56.252c0 0 .989.003 1.169-.063.18-.066.659-.12.659-.12.446-.005 1.011.199 1.011.199" style="fill:none;stroke:#4a0;stroke-width:.22809581px;stroke-linecap:round;stroke-linejoin:miter;stroke-opacity:1"/><path d="m 44.919775,56.740537 c 0,0 -0.42828,1.656241 -0.214675,1.923515 0.213605,0.267274 0.680533,1.536556 1.749092,1.777531 1.068561,0.240974 2.484362,0.642419 3.178846,0.963361 0.694484,0.320942 1.348716,1.002544 1.081977,0.120754 -0.266739,-0.881788 0.388563,-2.390976 0.215744,-4.114303 -0.172819,-1.723327 -1.054073,-2.551982 -1.521535,-2.72587 -0.467461,-0.173889 -1.669658,-0.30806 -2.458062,0.212536 -0.788404,0.520595 -2.031387,1.842476 -2.031387,1.842476 z" style="fill:none;stroke:#000;stroke-width:.52916667;stroke-linecap:round;stroke-linejoin:round;stroke-miterlimit:4;stroke-dasharray:none;stroke-opacity:1"/><path d="M47.047 57.055c0 0-.6.557-.598.729.002.172-.097.871-.097.871M47.786 57.761c-.012-.005-.375.557-.291 1.065-.064.38-.055.489-.055.489" style="fill:none;stroke:#4a0;stroke-width:.22809581px;stroke-linecap:round;stroke-linejoin:miter;stroke-opacity:1"/><path style="fill:#b1da33;fill-opacity:1;stroke:none;stroke-width:.22809581px;stroke-linecap:butt;stroke-linejoin:miter;stroke-opacity:1" d="m 18.656512,61.74986 -0.359093,-5.145459 c 0.569785,-0.7109 0.725676,-1.599184 1.878721,-2.060116 l 2.323871,0.386146 2.091044,2.348638 -0.190323,1.957749 -1.69248,1.415344 z"/><path style="fill:none;stroke:#4a0;stroke-width:.22809581px;stroke-linecap:butt;stroke-linejoin:miter;stroke-opacity:1" d="m 18.690083,61.228971 c 0,0 1.243989,-1.07766 1.994453,-2.065119 0.750464,-0.987459 0.839838,-1.729003 0.839838,-1.729003 0,0 0.755586,-0.170396 0.750653,-0.600179 -0.0049,-0.429785 0.108349,-0.571528 0.108349,-0.571528 l 0.490884,-0.614221"/><path style="fill:none;stroke:#4a0;stroke-width:.22809581px;stroke-linecap:round;stroke-linejoin:miter;stroke-opacity:1" d="M21.337 58.014c-2.708.82-2.738.549-2.738.549M21.524 57.435c0 0-2.502.016-2.809-.285M22.367 56.243c0 0-.989.003-1.169-.063-.18-.066-.659-.12-.659-.12-.446-.005-1.011.199-1.011.199"/><path style="fill:none;stroke:#000;stroke-width:.52916667;stroke-linecap:round;stroke-linejoin:round;stroke-miterlimit:4;stroke-dasharray:none;stroke-opacity:1" d="m 24.368676,56.732012 c 0,0 0.42828,1.656241 0.214675,1.923515 -0.213605,0.267274 -0.680533,1.536556 -1.749092,1.777531 -1.068561,0.240974 -2.484362,0.642419 -3.178846,0.963361 -0.694484,0.320942 -1.348716,1.002544 -1.081977,0.120754 0.266739,-0.881788 -0.388563,-2.390976 -0.215744,-4.114303 0.172819,-1.723327 1.054073,-2.551982 1.521535,-2.72587 0.467461,-0.173889 1.669658,-0.30806 2.458062,0.212536 0.788404,0.520595 2.031387,1.842476 2.031387,1.842476 z"/><path style="fill:none;stroke:#4a0;stroke-width:.22809581px;stroke-linecap:round;stroke-linejoin:miter;stroke-opacity:1" d="M22.241 57.046c0 0 .6.557.598.729-.002.172.097.871.097.871M21.502 57.753c.012-.005.375.557.291 1.065.064.38.055.489.055.489"/><path style="fill:#ccc;stroke:none;stroke-width:.28108886px;stroke-linecap:butt;stroke-linejoin:miter;stroke-opacity:1" d="m 11.693692,51.891875 0.842791,0.734631 0.09851,0.68636 1.182912,0.227069 0.405258,1.279638 1.214729,0.01009 0.294323,0.955025 -2.76489,3.125208 -0.949308,0.408473 -1.172697,-0.92332 -3.695286,3.997618 -1.100213,-1.063885 3.454878,-4.247755 -1.2253596,-1.309911 z"/><path style="fill:#f55;stroke:none;stroke-width:.28108886px;stroke-linecap:butt;stroke-linejoin:miter;stroke-opacity:1" d="m 8.060429,58.78152 1.4302626,1.246709 -2.3406592,2.364438 -1.100213,-1.063885 z"/><path style="fill:none;fill-opacity:1;stroke:#000;stroke-width:.56217778;stroke-linecap:butt;stroke-linejoin:miter;stroke-miterlimit:4;stroke-dasharray:none;stroke-opacity:1" d="M 8.8727889,54.85244 11.11554,52.277499 c 0,0 0.607888,-0.557807 1.169937,-0.06826 0.562044,0.48954 0.103177,1.20609 0.103177,1.20609 l -1.970376,2.262255 0.21184,0.184362 1.958133,-2.248208 c 0,0 0.60411,-0.610466 1.194247,-0.09645 0.590147,0.514018 0.261753,1.197671 0.261753,1.197671 l -2.034397,2.278983 0.269658,0.234798 c 0.68536,-0.786863 1.887811,-2.20603 2.021452,-2.320851 0,0 0.644942,-0.456475 1.104165,-0.07613 0.427511,0.354071 0.41011,0.781963 0.327084,0.952941 -0.253048,0.277531 -1.623845,1.864341 -2.574222,2.95549 0,0 -0.877234,0.725036 -1.20178,0.442356 l -0.96649,-0.841814 C 9.9431144,59.466678 8.0880265,61.445203 7.8499071,61.718589 7.7085537,61.880877 7.227177,62.66007 6.4692419,61.998683 5.7672096,61.386077 6.2628015,60.802977 6.4511409,60.586747 l 3.0535572,-3.505721 c 0,0 -0.9917603,-0.764462 -1.1088545,-1.105608 -0.1170867,-0.341139 0.3383168,-0.94282 0.4769439,-1.122982 z"/><path style="fill:#ccc;fill-opacity:1;stroke:none;stroke-width:.17181738px;stroke-linecap:butt;stroke-linejoin:miter;stroke-opacity:1" d="m 54.074841,52.327109 5.693966,6.650318 -1.445342,0.498005 -2.203016,-0.433641 -2.344898,-3.934414 z"/><path style="fill:#f55;fill-opacity:1;stroke:none;stroke-width:.19599269px;stroke-linecap:butt;stroke-linejoin:miter;stroke-opacity:1" d="m 57.95079,59.139798 1.251772,-0.885981 1.834467,2.194886 -0.681535,1.356238 -1.206799,-0.31316 z"/><path style="fill:#e6e6e6;stroke:none;stroke-width:.17181738px;stroke-linecap:butt;stroke-linejoin:miter;stroke-opacity:1" d="m 54.36866,52.929518 0.12237,2.373182 2.067659,3.409049 0.885517,0.465137 -0.936706,0.0518 c 0,0 -2.388961,-3.448897 -2.430417,-3.557404 -0.04146,-0.108506 -0.272027,-1.713411 -0.272027,-1.713411 l 0.250727,-1.39663 z"/><path style="fill:none;stroke:#000;stroke-width:.51545221;stroke-linecap:butt;stroke-linejoin:round;stroke-miterlimit:4;stroke-dasharray:none;stroke-opacity:1" d="m 54.074841,52.327109 6.715825,7.87692 c 0,0 0.543606,0.575058 -0.03988,1.205604 -0.583488,0.630548 -1.293329,0.243883 -1.550975,-0.16494 -0.257647,-0.408823 -0.706308,-1.994708 -1.281134,-1.972425 -0.574827,0.02228 -1.471055,0.203567 -1.866113,-0.423294 -0.395057,-0.626861 -1.94487,-3.069847 -2.065287,-3.458382 -0.120421,-0.388536 -0.216077,-2.48709 0.08757,-3.063483 z"/><path style="opacity:1;vector-effect:none;fill:#ff5959;fill-opacity:1;stroke:#000;stroke-width:.38979158;stroke-linecap:round;stroke-linejoin:round;stroke-miterlimit:4;stroke-dasharray:none;stroke-dashoffset:0;stroke-opacity:1;paint-order:fill markers stroke" d="m 39.130857,21.767159 c 0,2.361307 -2.58638,3.426303 -5.068768,3.434277 -2.539506,0.0081 -5.303458,-1.160204 -5.116016,-3.654295 0.112142,-1.492102 0.653638,-2.942041 1.950787,-3.78076 0.822257,-0.531659 2.195459,-0.755887 3.165229,-0.787112 0.906181,-0.02917 2.247713,0.137541 3.080524,0.710013 1.346155,0.925338 1.988244,2.61907 1.988244,4.077877 z"/><path style="fill:#ffd99a;fill-opacity:1;stroke:none;stroke-width:.38979158px;stroke-linecap:butt;stroke-linejoin:miter;stroke-opacity:1" d="m 32.129781,21.126134 c 0,0 0.607238,-0.788114 1.240309,-0.865634 0.633077,-0.07752 1.238159,-0.103362 1.632213,0.07752 0.394056,0.180879 0.990481,0.732134 0.990481,0.732134 l 0.867895,0.566415 c 0,0 0.173577,0.30148 0.146173,0.66691 -0.0274,0.36543 -0.109622,0.776539 -0.557281,1.096289 -0.447652,0.319751 -1.132878,0.8013 -2.11479,0.904658 -0.981913,0.103362 -2.312661,-0.529715 -2.635657,-0.865633 -0.322998,-0.335917 -0.723516,-0.697674 -0.594317,-1.369507 0.129203,-0.671835 0.40052,-0.723514 0.40052,-0.723514 z"/><rect style="opacity:1;vector-effect:none;fill:#8b193a;fill-opacity:1;stroke:none;stroke-width:.40679973;stroke-linecap:round;stroke-linejoin:round;stroke-miterlimit:4;stroke-dasharray:none;stroke-dashoffset:0;stroke-opacity:1;paint-order:fill markers stroke" width="2.222" height="1.105" x="32.935" y="20.96" ry="0"/><ellipse style="opacity:1;vector-effect:none;fill:#fd4e56;fill-opacity:1;stroke:none;stroke-width:.42405745;stroke-linecap:round;stroke-linejoin:round;stroke-miterlimit:4;stroke-dasharray:none;stroke-dashoffset:0;stroke-opacity:1;paint-order:fill markers stroke" cx="34.053" cy="22.469" rx="1.208" ry=".824"/><path style="fill:none;stroke:#000;stroke-width:.38979158;stroke-linecap:round;stroke-linejoin:round;stroke-miterlimit:4;stroke-dasharray:none;stroke-opacity:1" d="m 33.12416,22.848577 c 0.289773,0.501903 0.623446,0.532089 0.912656,0.537443 0.316458,0.0059 0.728644,-0.159094 0.966171,-0.561066 0.237531,-0.401972 0.394406,-1.479989 0.06551,-1.97332 -0.328886,-0.493329 -0.184934,0.08471 -0.464355,0.22461 -0.243666,0.07259 -0.916043,0.05189 -1.167159,-0.01827 -0.216344,-0.12023 -0.184108,-0.577731 -0.377433,-0.242881 -0.399303,0.809713 -0.284169,1.501654 0.0646,2.033482 z"/><path style="fill:#52875b;fill-opacity:1;stroke:none;stroke-width:.38979158;stroke-linecap:butt;stroke-linejoin:miter;stroke-miterlimit:4;stroke-dasharray:none;stroke-opacity:1" d="m 30.439431,16.080917 -0.607233,0.01937 0.665374,1.550387 1.524545,0.322996 1.193402,-0.630908 -0.599087,-1.016378 z"/><path style="fill:#a8c930;fill-opacity:1;stroke:none;stroke-width:.38979158;stroke-linecap:butt;stroke-linejoin:miter;stroke-miterlimit:4;stroke-dasharray:none;stroke-opacity:1" d="m 30.230562,16.207962 c 0,0 0.516792,0.865632 1.12403,0.943152 0.607232,0.07752 0.865629,0 0.968991,-0.02584 0.103361,-0.02584 0.245478,-0.180878 0.219634,-0.297157 -0.02584,-0.116282 -0.219634,-0.180879 -0.232556,-0.245478 -0.01297,-0.0646 0.005,-0.129085 0.06436,-0.147351 0.05939,-0.01827 0.415674,0.173579 0.415674,0.173579 l 0.0091,-0.790241 -1.091721,-0.190328 z"/><path d="m 37.662504,16.080917 0.607233,0.01937 -0.665374,1.550387 -1.524545,0.322996 -1.193402,-0.630908 0.599087,-1.016378 z" style="fill:#52875b;fill-opacity:1;stroke:none;stroke-width:.38979158;stroke-linecap:butt;stroke-linejoin:miter;stroke-miterlimit:4;stroke-dasharray:none;stroke-opacity:1"/><path d="m 37.871374,16.207962 c 0,0 -0.516793,0.865632 -1.124031,0.943152 -0.607232,0.07752 -0.865629,0 -0.96899,-0.02584 -0.103362,-0.02584 -0.245479,-0.180878 -0.219635,-0.297157 0.02584,-0.116282 0.219635,-0.180879 0.232556,-0.245478 0.01297,-0.0646 -0.005,-0.129085 -0.06437,-0.147351 -0.05939,-0.01827 -0.415674,0.173579 -0.415674,0.173579 l -0.0091,-0.790241 1.091721,-0.190328 z" style="fill:#a8c930;fill-opacity:1;stroke:none;stroke-width:.38979158;stroke-linecap:butt;stroke-linejoin:miter;stroke-miterlimit:4;stroke-dasharray:none;stroke-opacity:1"/><path style="fill:#52875b;fill-opacity:1;stroke:none;stroke-width:.38979158;stroke-linecap:butt;stroke-linejoin:miter;stroke-miterlimit:4;stroke-dasharray:none;stroke-opacity:1" d="m 34.024028,14.600527 -1.103901,1.085629 -0.0274,1.269868 1.131979,0.944444 1.124549,-0.97185 0.06395,-1.251597 z"/><path style="fill:#a8c930;fill-opacity:1;stroke:none;stroke-width:.38979158;stroke-linecap:butt;stroke-linejoin:miter;stroke-miterlimit:4;stroke-dasharray:none;stroke-opacity:1" d="m 34.406207,15.007067 c 0,0 0.319754,0.539009 0.328886,0.886166 0.0091,0.347159 -0.04567,0.502467 -0.127905,0.593825 -0.08222,0.09136 -0.264937,0.237528 -0.520738,0.237528 -0.255801,0 -0.465921,-0.07309 -0.566415,-0.155307 -0.100489,-0.08222 -0.31366,-0.301479 -0.304523,-0.575552 0.0091,-0.274072 0.03652,-0.415676 0.08222,-0.516169 0.04568,-0.100489 0.118771,-0.30148 0.118771,-0.30148 l 0.607526,-0.575551 z"/><path style="fill:none;stroke:#000;stroke-width:.38979158;stroke-linecap:butt;stroke-linejoin:miter;stroke-miterlimit:4;stroke-dasharray:none;stroke-opacity:1" d="m 32.81023,16.2984 c -0.02584,-1.03359 1.214468,-1.731264 1.214468,-1.731264 0,0 1.24031,0.697674 1.214469,1.731264 -0.02584,1.033592 -1.214469,1.602068 -1.214469,1.602068 0,0 -1.188628,-0.568476 -1.214468,-1.602068 z"/><path style="fill:none;stroke:#000;stroke-width:.38979158;stroke-linecap:butt;stroke-linejoin:miter;stroke-miterlimit:4;stroke-dasharray:none;stroke-opacity:1" d="M32.887 15.881c0 0-.512-.256-1.041-.219-.53.037-1.352.53-1.553.457-.201-.073-.384-.292-.42-.183-.037.11-.214.596.512 1.443.381.444 1.206.64 1.663.548.457-.091 1.297-.594 1.297-.594M35.215 15.881c0 0 .512-.256 1.041-.219.53.037 1.352.53 1.553.457.201-.073.384-.292.42-.183.037.11.214.596-.512 1.443-.381.444-1.206.64-1.663.548-.457-.091-1.297-.594-1.297-.594"/><circle style="opacity:1;vector-effect:none;fill:#41090a;fill-opacity:1;stroke:none;stroke-width:.42003402;stroke-linecap:round;stroke-linejoin:round;stroke-miterlimit:4;stroke-dasharray:none;stroke-dashoffset:0;stroke-opacity:1;paint-order:fill markers stroke" cx="31.421" cy="20.848" r=".807"/><ellipse style="opacity:1;vector-effect:none;fill:#fff;fill-opacity:1;stroke:none;stroke-width:.38979158;stroke-linecap:round;stroke-linejoin:round;stroke-miterlimit:4;stroke-dasharray:none;stroke-dashoffset:0;stroke-opacity:1;paint-order:fill markers stroke" cx="31.811" cy="20.478" rx=".271" ry=".265"/><circle r=".807" cy="20.835" cx="36.731" style="opacity:1;vector-effect:none;fill:#41090a;fill-opacity:1;stroke:none;stroke-width:.42003402;stroke-linecap:round;stroke-linejoin:round;stroke-miterlimit:4;stroke-dasharray:none;stroke-dashoffset:0;stroke-opacity:1;paint-order:fill markers stroke"/><ellipse style="opacity:1;vector-effect:none;fill:#fff;fill-opacity:1;stroke:none;stroke-width:.47004279;stroke-linecap:round;stroke-linejoin:round;stroke-miterlimit:4;stroke-dasharray:none;stroke-dashoffset:0;stroke-opacity:1;paint-order:fill markers stroke" cx="36.372" cy="20.478" rx=".273" ry=".265"/><ellipse style="opacity:1;vector-effect:none;fill:#fd807a;fill-opacity:1;stroke:none;stroke-width:.22761856;stroke-linecap:round;stroke-linejoin:round;stroke-miterlimit:4;stroke-dasharray:none;stroke-dashoffset:0;stroke-opacity:1;paint-order:fill markers stroke" cx="39.47" cy="-9.176" rx=".382" ry=".445" transform="matrix(.69374 .72023 -.75145 .6598 0 0)"/><ellipse transform="matrix(-.69374 .72023 .75145 .6598 0 0)" ry=".445" rx=".382" cy="39.925" cx="-5.502" style="opacity:1;vector-effect:none;fill:#fd807a;fill-opacity:1;stroke:none;stroke-width:.22761856;stroke-linecap:round;stroke-linejoin:round;stroke-miterlimit:4;stroke-dasharray:none;stroke-dashoffset:0;stroke-opacity:1;paint-order:fill markers stroke"/><ellipse style="opacity:1;vector-effect:none;fill:#f6fbce;fill-opacity:1;stroke:none;stroke-width:.44736335;stroke-linecap:round;stroke-linejoin:round;stroke-miterlimit:4;stroke-dasharray:none;stroke-dashoffset:0;stroke-opacity:1;paint-order:fill markers stroke" cx="37.049" cy="-4.573" rx=".262" ry=".368" transform="matrix(.78871 .61476 -.60114 .79915 0 0)"/><ellipse transform="matrix(.78871 .61476 -.60114 .79915 0 0)" ry=".368" rx=".262" cy="-3.217" cx="35.939" style="opacity:1;vector-effect:none;fill:#f6fbce;fill-opacity:1;stroke:none;stroke-width:.44736335;stroke-linecap:round;stroke-linejoin:round;stroke-miterlimit:4;stroke-dasharray:none;stroke-dashoffset:0;stroke-opacity:1;paint-order:fill markers stroke"/><ellipse style="opacity:1;vector-effect:none;fill:#f6fbce;fill-opacity:1;stroke:none;stroke-width:.33829439;stroke-linecap:round;stroke-linejoin:round;stroke-miterlimit:4;stroke-dasharray:none;stroke-dashoffset:0;stroke-opacity:1;paint-order:fill markers stroke" cx="35.957" cy="3.859" rx=".194" ry=".284" transform="matrix(.8735 .48684 -.34209 .93967 0 0)"/><ellipse transform="matrix(.66846 .74375 -.73217 .68112 0 0)" ry=".257" rx=".182" cy="-10.675" cx="34.963" style="opacity:1;vector-effect:none;fill:#f6fbce;fill-opacity:1;stroke:none;stroke-width:.31206498;stroke-linecap:round;stroke-linejoin:round;stroke-miterlimit:4;stroke-dasharray:none;stroke-dashoffset:0;stroke-opacity:1;paint-order:fill markers stroke"/><ellipse transform="matrix(.9999 .01414 .00105 1 0 0)" ry=".281" rx=".23" cy="18.389" cx="34.023" style="opacity:1;vector-effect:none;fill:#f6fbce;fill-opacity:1;stroke:none;stroke-width:.36634991;stroke-linecap:round;stroke-linejoin:round;stroke-miterlimit:4;stroke-dasharray:none;stroke-dashoffset:0;stroke-opacity:1;paint-order:fill markers stroke"/><ellipse style="opacity:1;vector-effect:none;fill:#f6fbce;fill-opacity:1;stroke:none;stroke-width:.36634991;stroke-linecap:round;stroke-linejoin:round;stroke-miterlimit:4;stroke-dasharray:none;stroke-dashoffset:0;stroke-opacity:1;paint-order:fill markers stroke" cx="38.378" cy="3.807" rx=".23" ry=".281" transform="matrix(.90886 .4171 -.40324 .9151 0 0)"/><ellipse transform="matrix(.90886 .4171 -.40324 .9151 0 0)" ry=".281" rx=".23" cy="3.21" cx="37.651" style="opacity:1;vector-effect:none;fill:#f6fbce;fill-opacity:1;stroke:none;stroke-width:.36634991;stroke-linecap:round;stroke-linejoin:round;stroke-miterlimit:4;stroke-dasharray:none;stroke-dashoffset:0;stroke-opacity:1;paint-order:fill markers stroke"/><ellipse style="opacity:1;vector-effect:none;fill:#f6fbce;fill-opacity:1;stroke:none;stroke-width:.36634991;stroke-linecap:round;stroke-linejoin:round;stroke-miterlimit:4;stroke-dasharray:none;stroke-dashoffset:0;stroke-opacity:1;paint-order:fill markers stroke" cx="23.947" cy="31.586" rx=".23" ry=".281" transform="matrix(.91152 -.41127 .42507 .90516 0 0)"/><ellipse transform="matrix(.91152 -.41127 .42507 .90516 0 0)" ry=".281" rx=".23" cy="32.829" cx="23.618" style="opacity:1;vector-effect:none;fill:#f6fbce;fill-opacity:1;stroke:none;stroke-width:.36634991;stroke-linecap:round;stroke-linejoin:round;stroke-miterlimit:4;stroke-dasharray:none;stroke-dashoffset:0;stroke-opacity:1;paint-order:fill markers stroke"/><ellipse style="opacity:1;vector-effect:none;fill:#f6fbce;fill-opacity:1;stroke:none;stroke-width:.46034202;stroke-linecap:round;stroke-linejoin:round;stroke-miterlimit:4;stroke-dasharray:none;stroke-dashoffset:0;stroke-opacity:1;paint-order:fill markers stroke" cx="21.593" cy="35.132" rx=".284" ry=".359" transform="matrix(.85383 -.52056 .50314 .8642 0 0)"/><ellipse transform="matrix(.7157 -.69842 .67097 .74148 0 0)" ry=".336" rx=".266" cy="40.407" cx="14.932" style="opacity:1;vector-effect:none;fill:#f6fbce;fill-opacity:1;stroke:none;stroke-width:.43111175;stroke-linecap:round;stroke-linejoin:round;stroke-miterlimit:4;stroke-dasharray:none;stroke-dashoffset:0;stroke-opacity:1;paint-order:fill markers stroke"/><ellipse style="opacity:1;vector-effect:none;fill:#f6fbce;fill-opacity:1;stroke:none;stroke-width:.29621553;stroke-linecap:round;stroke-linejoin:round;stroke-miterlimit:4;stroke-dasharray:none;stroke-dashoffset:0;stroke-opacity:1;paint-order:fill markers stroke" cx="29.331" cy="33.065" rx=".183" ry=".231" transform="matrix(.93073 -.3657 .3304 .94384 0 0)"/><ellipse transform="matrix(.93073 -.3657 .3304 .94384 0 0)" ry=".271" rx=".214" cy="33.562" cx="28.898" style="opacity:1;vector-effect:none;fill:#f6fbce;fill-opacity:1;stroke:none;stroke-width:.34755445;stroke-linecap:round;stroke-linejoin:round;stroke-miterlimit:4;stroke-dasharray:none;stroke-dashoffset:0;stroke-opacity:1;paint-order:fill markers stroke"/><ellipse style="opacity:1;vector-effect:none;fill:#f6fbce;fill-opacity:1;stroke:none;stroke-width:.44736335;stroke-linecap:round;stroke-linejoin:round;stroke-miterlimit:4;stroke-dasharray:none;stroke-dashoffset:0;stroke-opacity:1;paint-order:fill markers stroke" cx="20.85" cy="30.899" rx=".262" ry=".368" transform="matrix(.94948 -.31383 .33007 .94396 0 0)"/><ellipse transform="matrix(.79482 -.60685 .72526 .68848 0 0)" ry=".284" rx=".194" cy="38.822" cx="4.284" style="opacity:1;vector-effect:none;fill:#f6fbce;fill-opacity:1;stroke:none;stroke-width:.33829439;stroke-linecap:round;stroke-linejoin:round;stroke-miterlimit:4;stroke-dasharray:none;stroke-dashoffset:0;stroke-opacity:1;paint-order:fill markers stroke"/><ellipse style="opacity:1;vector-effect:none;fill:#f6fbce;fill-opacity:1;stroke:none;stroke-width:.44736335;stroke-linecap:round;stroke-linejoin:round;stroke-miterlimit:4;stroke-dasharray:none;stroke-dashoffset:0;stroke-opacity:1;paint-order:fill markers stroke" cx="-43.995" cy="5.372" rx=".262" ry=".368" transform="matrix(-.78871 -.61476 .60114 -.79915 0 0)"/><ellipse transform="matrix(.85383 .52056 .50314 -.8642 0 0)" ry=".359" rx=".284" cy="-1.624" cx="43.616" style="opacity:1;vector-effect:none;fill:#f6fbce;fill-opacity:1;stroke:none;stroke-width:.46034202;stroke-linecap:round;stroke-linejoin:round;stroke-miterlimit:4;stroke-dasharray:none;stroke-dashoffset:0;stroke-opacity:1;paint-order:fill markers stroke"/><g transform="translate(90.34 15.127) scale(1.75547)" style="font-style:normal;font-variant:normal;font-weight:400;font-stretch:normal;font-size:medium;line-height:1.25;font-family:Arial;-inkscape-font-specification:Arial;letter-spacing:0;word-spacing:0;fill:#000;fill-opacity:1;stroke:none;stroke-width:.26458332"><path style="opacity:1;vector-effect:none;fill:#000;fill-opacity:1;stroke:none;stroke-width:2.15760517;stroke-linecap:round;stroke-linejoin:round;stroke-miterlimit:4;stroke-dasharray:none;stroke-dashoffset:0;stroke-opacity:1;paint-order:fill markers stroke" d="M-47.951 6.375H-15.447V13.859H-47.951z"/><rect ry="0" y="12.285" x="-41.368" height="9.227" width="19.003" style="opacity:1;vector-effect:none;fill:#000;fill-opacity:1;stroke:none;stroke-width:1.89211631;stroke-linecap:round;stroke-linejoin:round;stroke-miterlimit:4;stroke-dasharray:none;stroke-dashoffset:0;stroke-opacity:1;paint-order:fill markers stroke"/><path d="m -23.793373,14.162503 -2.926953,0.04961 0.198437,2.108399 1.761133,3.026172 0.03766,1.976954 h 2.771076 l -0.03061,-1.90254 1.885156,-3.199805 0.079,-2.021117 -2.95634,-0.06248 0.02479,1.835547 -0.391263,0.588541 -0.427292,-0.836588 z" style="fill:#fceaaa;fill-opacity:1;stroke:none;stroke-width:.26458332px;stroke-linecap:butt;stroke-linejoin:miter;stroke-opacity:1"/><path style="opacity:1;vector-effect:none;fill:#fceaaa;fill-opacity:1;stroke:none;stroke-width:.52916664;stroke-linecap:round;stroke-linejoin:round;stroke-miterlimit:4;stroke-dasharray:none;stroke-dashoffset:0;stroke-opacity:1;paint-order:fill markers stroke" d="M-32.053 17.677H-29.821V20.703H-32.053z"/><path style="opacity:1;vector-effect:none;fill:#fceaaa;fill-opacity:1;stroke:none;stroke-width:.52916664;stroke-linecap:round;stroke-linejoin:round;stroke-miterlimit:4;stroke-dasharray:none;stroke-dashoffset:0;stroke-opacity:1;paint-order:fill markers stroke" d="M-32.153 14.204H-27.688V18.52H-32.153zM-35.05 14.014H-33.442V20.62H-35.05z"/><path style="opacity:1;vector-effect:none;fill:#fceaaa;fill-opacity:1;stroke:none;stroke-width:.55009836;stroke-linecap:round;stroke-linejoin:round;stroke-miterlimit:4;stroke-dasharray:none;stroke-dashoffset:0;stroke-opacity:1;paint-order:fill markers stroke" d="M-39.895 19.643H-36.39V20.583H-39.895z"/><path style="opacity:1;vector-effect:none;fill:#fceaaa;fill-opacity:1;stroke:none;stroke-width:.52916664;stroke-linecap:round;stroke-linejoin:round;stroke-miterlimit:4;stroke-dasharray:none;stroke-dashoffset:0;stroke-opacity:1;paint-order:fill markers stroke" d="M-41.228 14.269H-39.369V20.688H-41.228z"/><path d="m -21.044441,6.6597932 v 6.5683998 h 2.639849 v -2.33164 h 2.083593 v 2.629296 h 2.182813 V 6.5557321 h -2.356446 v 2.5052737 h -2.058789 V 6.6053415 Z" style="fill:#fcf4ea;fill-opacity:1;stroke:none;stroke-width:.26458332px;stroke-linecap:butt;stroke-linejoin:miter;stroke-opacity:1"/><path d="m -21.854196,6.421187 h -3.051884 l -1.929352,1.473324 v 4.279653 l 1.578562,1.403165 h 3.262358 l 0.876979,-0.876978 -0.876979,-1.894273 -1.543482,0.491108 -1.052372,-0.701583 -0.140316,-0.947136 0.666501,-0.736662 1.192691,0.03508 0.841899,0.491107 1.052375,-1.859194 z" style="fill:#fcf4ea;fill-opacity:1;stroke:none;stroke-width:.26458332px;stroke-linecap:butt;stroke-linejoin:miter;stroke-opacity:1"/><path style="opacity:1;vector-effect:none;fill:#eec993;fill-opacity:1;stroke:none;stroke-width:.37542289;stroke-linecap:round;stroke-linejoin:round;stroke-miterlimit:4;stroke-dasharray:none;stroke-dashoffset:0;stroke-opacity:1;paint-order:fill markers stroke" d="m -25.195093,8.4620247 h 0.672736 c -0.05094,1.7424623 0.05409,3.0170343 0.595313,2.9830093 h -1.268049 z"/><path d="m -34.397634,6.659793 -0.09885,6.958207 h 2.601998 l 0.06613,-2.648219 2.245063,2.736171 2.214015,-0.08795 0.189828,-7.013793 -2.654118,0.0065 -0.03305,2.79437 -2.347613,-3.065735 z" style="fill:#fcf4ea;fill-opacity:1;stroke:none;stroke-width:.26458332px;stroke-linecap:butt;stroke-linejoin:miter;stroke-opacity:1"/><path style="font-style:normal;font-variant:normal;font-weight:400;font-stretch:normal;font-size:10.58333302px;line-height:1.25;font-family:Arial;-inkscape-font-specification:Arial;letter-spacing:0;word-spacing:0;display:inline;opacity:1;vector-effect:none;fill:#eec993;fill-opacity:1;stroke:none;stroke-width:.17927332;stroke-linecap:round;stroke-linejoin:round;stroke-miterlimit:4;stroke-dasharray:none;stroke-dashoffset:0;stroke-opacity:1;paint-order:fill markers stroke" transform="matrix(0 -1 -1 0 0 0)" d="M-12.486 30.351H-11.837V30.825H-12.486z"/><path transform="matrix(0 -1 -1 0 0 0)" style="font-style:normal;font-variant:normal;font-weight:400;font-stretch:normal;font-size:10.58333302px;line-height:1.25;font-family:Arial;-inkscape-font-specification:Arial;letter-spacing:0;word-spacing:0;display:inline;opacity:1;vector-effect:none;fill:#e1a143;fill-opacity:1;stroke:none;stroke-width:.19326314;stroke-linecap:round;stroke-linejoin:round;stroke-miterlimit:4;stroke-dasharray:none;stroke-dashoffset:0;stroke-opacity:1;paint-order:fill markers stroke" d="M-12.907 30H-12.153V30.474H-12.907z"/><path style="font-style:normal;font-variant:normal;font-weight:400;font-stretch:normal;font-size:10.58333302px;line-height:1.25;font-family:Arial;-inkscape-font-specification:Arial;letter-spacing:0;word-spacing:0;display:inline;opacity:1;vector-effect:none;fill:#e1a143;fill-opacity:1;stroke:none;stroke-width:.21775025;stroke-linecap:round;stroke-linejoin:round;stroke-miterlimit:4;stroke-dasharray:none;stroke-dashoffset:0;stroke-opacity:1;paint-order:fill markers stroke" transform="matrix(0 -1 -1 0 0 0)" d="M-13.328 29.637H-12.416V30.134H-13.328z"/><rect ry="0" y="6.66" x="-27.891" height="6.398" width=".595" style="opacity:1;vector-effect:none;fill:#eec993;fill-opacity:1;stroke:none;stroke-width:.51719028;stroke-linecap:round;stroke-linejoin:round;stroke-miterlimit:4;stroke-dasharray:none;stroke-dashoffset:0;stroke-opacity:1;paint-order:fill markers stroke"/><path transform="scale(-1 1)" style="font-style:normal;font-variant:normal;font-weight:400;font-stretch:normal;font-size:10.58333302px;line-height:1.25;font-family:Arial;-inkscape-font-specification:Arial;letter-spacing:0;word-spacing:0;display:inline;opacity:1;vector-effect:none;fill:#e1a143;fill-opacity:1;stroke:none;stroke-width:.45825112;stroke-linecap:round;stroke-linejoin:round;stroke-miterlimit:4;stroke-dasharray:none;stroke-dashoffset:0;stroke-opacity:1;paint-order:fill markers stroke" d="M27.369 12.846H29.971V13.618H27.369z"/><rect style="opacity:1;vector-effect:none;fill:#eec993;fill-opacity:1;stroke:none;stroke-width:.51719028;stroke-linecap:round;stroke-linejoin:round;stroke-miterlimit:4;stroke-dasharray:none;stroke-dashoffset:0;stroke-opacity:1;paint-order:fill markers stroke" width=".595" height="6.398" x="-34.398" y="6.66" ry="0"/><rect ry="0" y="10.728" x="-32.463" height="2.329" width=".595" style="opacity:1;vector-effect:none;fill:#eec993;fill-opacity:1;stroke:none;stroke-width:.31205699;stroke-linecap:round;stroke-linejoin:round;stroke-miterlimit:4;stroke-dasharray:none;stroke-dashoffset:0;stroke-opacity:1;paint-order:fill markers stroke"/><path style="font-style:normal;font-variant:normal;font-weight:400;font-stretch:normal;font-size:10.58333302px;line-height:1.25;font-family:Arial;-inkscape-font-specification:Arial;letter-spacing:0;word-spacing:0;display:inline;opacity:1;vector-effect:none;fill:#e1a143;fill-opacity:1;stroke:none;stroke-width:.45825112;stroke-linecap:round;stroke-linejoin:round;stroke-miterlimit:4;stroke-dasharray:none;stroke-dashoffset:0;stroke-opacity:1;paint-order:fill markers stroke" transform="scale(-1 1)" d="M31.894 12.846H34.496V13.618H31.894z"/><path d="m-41.715 6.644.655 6.121.811.703 1.868.438 2.53-.438.943-.852.174-6.028-2.744-.108-.109 5.094-.943-.149-.103-4.946zM-49.749 6.68l.007 7.073h2.666l.096-2.095 1.2 2.188 1.33-2.138.061 2.06h2.666V6.399h-2.38l-1.538 2.58-1.786-2.629z" style="fill:#fcf4ea;fill-opacity:1;stroke:none;stroke-width:.26458332px;stroke-linecap:butt;stroke-linejoin:miter;stroke-opacity:1"/><path transform="matrix(0 -1 -1 0 0 0)" style="font-style:normal;font-variant:normal;font-weight:400;font-stretch:normal;font-size:10.58333302px;line-height:1.25;font-family:Arial;-inkscape-font-specification:Arial;letter-spacing:0;word-spacing:0;display:inline;opacity:1;vector-effect:none;fill:#eec993;fill-opacity:1;stroke:none;stroke-width:.14972307;stroke-linecap:round;stroke-linejoin:round;stroke-miterlimit:4;stroke-dasharray:none;stroke-dashoffset:0;stroke-opacity:1;paint-order:fill markers stroke" d="M-12.88 45.873H-12.427V46.347H-12.88z"/><rect ry="0" y="6.585" x="-35.315" height="5.505" width=".595" style="opacity:1;vector-effect:none;fill:#eec993;fill-opacity:1;stroke:none;stroke-width:.47973964;stroke-linecap:round;stroke-linejoin:round;stroke-miterlimit:4;stroke-dasharray:none;stroke-dashoffset:0;stroke-opacity:1;paint-order:fill markers stroke"/><path transform="rotate(-90)" style="font-style:normal;font-variant:normal;font-weight:400;font-stretch:normal;font-size:10.58333302px;line-height:1.25;font-family:Arial;-inkscape-font-specification:Arial;letter-spacing:0;word-spacing:0;display:inline;opacity:1;vector-effect:none;fill:#e1a143;fill-opacity:1;stroke:none;stroke-width:.23018645;stroke-linecap:round;stroke-linejoin:round;stroke-miterlimit:4;stroke-dasharray:none;stroke-dashoffset:0;stroke-opacity:1;paint-order:fill markers stroke" d="M-13.1-35.505H-12.03V-35.031H-13.1z"/><path style="font-style:normal;font-variant:normal;font-weight:400;font-stretch:normal;font-size:10.58333302px;line-height:1.25;font-family:Arial;-inkscape-font-specification:Arial;letter-spacing:0;word-spacing:0;display:inline;opacity:1;vector-effect:none;fill:#e1a143;fill-opacity:1;stroke:none;stroke-width:.20767334;stroke-linecap:round;stroke-linejoin:round;stroke-miterlimit:4;stroke-dasharray:none;stroke-dashoffset:0;stroke-opacity:1;paint-order:fill markers stroke" transform="rotate(-90)" d="M-13.469-35.851H-12.417V-35.459H-13.469z"/><rect style="opacity:1;vector-effect:none;fill:#eec993;fill-opacity:1;stroke:none;stroke-width:.47973964;stroke-linecap:round;stroke-linejoin:round;stroke-miterlimit:4;stroke-dasharray:none;stroke-dashoffset:0;stroke-opacity:1;paint-order:fill markers stroke" width=".595" height="5.505" x="-41.368" y="6.585" ry="0"/><path style="font-style:normal;font-variant:normal;font-weight:400;font-stretch:normal;font-size:10.58333302px;line-height:1.25;font-family:Arial;-inkscape-font-specification:Arial;letter-spacing:0;word-spacing:0;display:inline;opacity:1;vector-effect:none;fill:#e1a143;fill-opacity:1;stroke:none;stroke-width:.23018645;stroke-linecap:round;stroke-linejoin:round;stroke-miterlimit:4;stroke-dasharray:none;stroke-dashoffset:0;stroke-opacity:1;paint-order:fill markers stroke" transform="matrix(0 -1 -1 0 0 0)" d="M-13.1 40.594H-12.03V41.068H-13.1z"/><path transform="matrix(0 -1 -1 0 0 0)" style="font-style:normal;font-variant:normal;font-weight:400;font-stretch:normal;font-size:10.58333302px;line-height:1.25;font-family:Arial;-inkscape-font-specification:Arial;letter-spacing:0;word-spacing:0;display:inline;opacity:1;vector-effect:none;fill:#e1a143;fill-opacity:1;stroke:none;stroke-width:.20767334;stroke-linecap:round;stroke-linejoin:round;stroke-miterlimit:4;stroke-dasharray:none;stroke-dashoffset:0;stroke-opacity:1;paint-order:fill markers stroke" d="M-13.469 40.249H-12.417V40.641H-13.469z"/><path transform="scale(-1 1)" style="font-style:normal;font-variant:normal;font-weight:400;font-stretch:normal;font-size:10.58333302px;line-height:1.25;font-family:Arial;-inkscape-font-specification:Arial;letter-spacing:0;word-spacing:0;display:inline;opacity:1;vector-effect:none;fill:#e1a143;fill-opacity:1;stroke:none;stroke-width:.63666087;stroke-linecap:round;stroke-linejoin:round;stroke-miterlimit:4;stroke-dasharray:none;stroke-dashoffset:0;stroke-opacity:1;paint-order:fill markers stroke" d="M35.595 12.846H40.617V13.618H35.595z"/><path transform="scale(-1 1)" style="opacity:1;vector-effect:none;fill:#eec993;fill-opacity:1;stroke:none;stroke-width:.52916664;stroke-linecap:round;stroke-linejoin:round;stroke-miterlimit:4;stroke-dasharray:none;stroke-dashoffset:0;stroke-opacity:1;paint-order:fill markers stroke" d="M41.715 6.644H42.36V13.068H41.715zM43.772 10.259H44.318V13.26H43.772z"/><path style="font-style:normal;font-variant:normal;font-weight:400;font-stretch:normal;font-size:10.58333302px;line-height:1.25;font-family:Arial;-inkscape-font-specification:Arial;letter-spacing:0;word-spacing:0;display:inline;opacity:1;vector-effect:none;fill:#e1a143;fill-opacity:1;stroke:none;stroke-width:.46385381;stroke-linecap:round;stroke-linejoin:round;stroke-miterlimit:4;stroke-dasharray:none;stroke-dashoffset:0;stroke-opacity:1;paint-order:fill markers stroke" transform="scale(-1 1)" d="M41.722 12.995H44.388V13.767H41.722z"/><path transform="scale(-1 1)" style="opacity:1;vector-effect:none;fill:#eec993;fill-opacity:1;stroke:none;stroke-width:.36950964;stroke-linecap:round;stroke-linejoin:round;stroke-miterlimit:4;stroke-dasharray:none;stroke-dashoffset:0;stroke-opacity:1;paint-order:fill markers stroke" d="M44.193 10.61H44.739V12.073H44.193z"/><path style="opacity:1;vector-effect:none;fill:#eec993;fill-opacity:1;stroke:none;stroke-width:.52916664;stroke-linecap:round;stroke-linejoin:round;stroke-miterlimit:4;stroke-dasharray:none;stroke-dashoffset:0;stroke-opacity:1;paint-order:fill markers stroke" d="M-47.692 10.245H-47.146V13.246H-47.692z"/><path style="opacity:1;vector-effect:none;fill:#eec993;fill-opacity:1;stroke:none;stroke-width:.36950964;stroke-linecap:round;stroke-linejoin:round;stroke-miterlimit:4;stroke-dasharray:none;stroke-dashoffset:0;stroke-opacity:1;paint-order:fill markers stroke" d="M-47.271 10.596H-46.725V12.059H-47.271z"/><path style="opacity:1;vector-effect:none;fill:#eec993;fill-opacity:1;stroke:none;stroke-width:.52916664;stroke-linecap:round;stroke-linejoin:round;stroke-miterlimit:4;stroke-dasharray:none;stroke-dashoffset:0;stroke-opacity:1;paint-order:fill markers stroke" d="M-49.749 6.68H-49.104V13.104H-49.749z"/><rect style="opacity:1;vector-effect:none;fill:#eec993;fill-opacity:1;stroke:none;stroke-width:.43986708;stroke-linecap:round;stroke-linejoin:round;stroke-miterlimit:4;stroke-dasharray:none;stroke-dashoffset:0;stroke-opacity:1;paint-order:fill markers stroke" width=".595" height="4.628" x="-37.478" y="6.48" ry="0"/><rect ry="0" y="6.48" x="-39.228" height="4.628" width=".595" style="opacity:1;vector-effect:none;fill:#eec993;fill-opacity:1;stroke:none;stroke-width:.43986708;stroke-linecap:round;stroke-linejoin:round;stroke-miterlimit:4;stroke-dasharray:none;stroke-dashoffset:0;stroke-opacity:1;paint-order:fill markers stroke"/><path style="opacity:1;vector-effect:none;fill:#e1a143;fill-opacity:1;stroke:none;stroke-width:.46385381;stroke-linecap:round;stroke-linejoin:round;stroke-miterlimit:4;stroke-dasharray:none;stroke-dashoffset:0;stroke-opacity:1;paint-order:fill markers stroke" d="M-49.742 12.981H-47.076V13.753H-49.742z"/><path style="font-style:normal;font-variant:normal;font-weight:400;font-stretch:normal;font-size:10.58333302px;line-height:1.25;font-family:Arial;-inkscape-font-specification:Arial;letter-spacing:0;word-spacing:0;display:inline;opacity:1;vector-effect:none;fill:#eec993;fill-opacity:1;stroke:none;stroke-width:.14972307;stroke-linecap:round;stroke-linejoin:round;stroke-miterlimit:4;stroke-dasharray:none;stroke-dashoffset:0;stroke-opacity:1;paint-order:fill markers stroke" transform="matrix(0 -1 -1 0 0 0)" d="M-12.88 45.079H-12.427V45.553H-12.88z"/><path d="m -46.292653,12.805588 h 1.157612 l -0.644804,1.039197 z" style="fill:#e1a143;fill-opacity:1;stroke:none;stroke-width:.26458332px;stroke-linecap:butt;stroke-linejoin:miter;stroke-opacity:1"/><path d="M-41.635 13.565q0 .15-.171.15-.202 0-.61-.021-.403-.021-.61-.021-.202 0-.615.021-.408.021-.61.021-.16 0-.16-.191 0-.346.031-1.044.031-.703.031-1.049 0-.15-.031-.15-.098 0-.661 1.302-.558 1.302-.661 1.302-.145 0-.682-1.302-.537-1.302-.641-1.302-.031 0-.031.15 0 .346.031 1.049.031.698.031 1.044 0 .191-.155.191-.207 0-.615-.021-.408-.021-.615-.021-.202 0-.61.021-.403.021-.605.021-.171 0-.171-.15 0-.563.052-1.69.052-1.132.052-1.695 0-.599-.052-1.798-.047-1.204-.047-1.804 0-.114.233-.114.171 0 .512-.015.341-.015.512-.015.191 0 .584-.041.393-.047.584-.047.047 0 .186.227.563.91 1.204 2.103.227.424.264.424.078 0 .248-.393.181-.424.548-1.049.527-.884.605-1.023.119-.222.212-.222.191 0 .584.021.393.021.589.021.191 0 .563-.031.377-.036.568-.036.124 0 .124.119 0 .61-.052 1.835-.052 1.225-.052 1.84 0 .563.052 1.695.057 1.127.057 1.69zM-34.734 6.589q0 .599-.052 1.798-.047 1.194-.047 1.793 0 .171.005.506.005.336.005.506 0 1.437-.413 1.917-.625.744-3.033.744-1.359 0-2.01-.274-.61-.258-.816-.858-.155-.46-.155-1.514 0-.15.005-.491 0-.341 0-.537 0-.599-.052-1.798-.047-1.204-.047-1.804 0-.114.124-.114.382 0 1.152.01.775.01 1.158.01.331 0 .253-.005.176.016.176.114 0 .594-.057 1.788-.052 1.194-.052 1.788 0 .067-.005.233-.005.165-.005.253 0 .997.615.997.501 0 .501-.77 0-.703-.047-2.114-.041-1.411-.041-2.114 0-.155.088-.16.186-.021.646-.005.62.016.672.016.217 0 .651-.021.434-.021.651-.021.129 0 .129.124z" style="font-style:normal;font-variant:normal;font-weight:700;font-stretch:normal;font-family:'Berlin Sans FB';-inkscape-font-specification:'Berlin Sans FB Bold';fill:none;fill-opacity:1;stroke:#000;stroke-width:.5291667;stroke-linejoin:round;stroke-miterlimit:4;stroke-dasharray:none"/><rect style="opacity:1;vector-effect:none;fill:#eec993;fill-opacity:1;stroke:none;stroke-width:.35409221;stroke-linecap:round;stroke-linejoin:round;stroke-miterlimit:4;stroke-dasharray:none;stroke-dashoffset:0;stroke-opacity:1;paint-order:fill markers stroke" width=".595" height="2.999" x="-29.834" y="6.611" ry="0"/><path d="m -27.179454,6.604207 q 0,0.589111 -0.05684,1.777669 -0.05684,1.183391 -0.05684,1.77767 l -0.01034,3.436482 q 0,0.118856 -0.180867,0.118856 -0.170532,0 -0.511597,-0.02067 -0.335897,-0.02067 -0.506429,-0.02067 -0.1757,0 -0.532267,0.02067 -0.356568,0.02067 -0.537435,0.02067 -0.08785,0 -0.211873,-0.170532 -1.875855,-2.594157 -2.030884,-2.594157 -0.07235,0 -0.07235,0.149862 0,0.403076 0.03101,1.214396 0.03101,0.806152 0.03101,1.209228 0,0.191203 -0.160197,0.191203 -0.186036,0 -0.563273,-0.02067 -0.372071,-0.02067 -0.558106,-0.02067 -0.201538,0 -0.609782,0.02067 -0.403076,0.02067 -0.604614,0.02067 -0.170532,0 -0.170532,-0.149862 0,-0.563273 0.05168,-1.689819 0.05168,-1.131714 0.05168,-1.694987 0,-0.589111 -0.05168,-1.762166 -0.04651,-1.178223 -0.04651,-1.762166 0,-0.113689 0.211874,-0.113689 0.232544,0 1.00769,-0.08785 0.103353,-0.01033 0.552938,-0.08785 0.341064,-0.06201 0.54777,-0.06201 0.07235,0 0.211873,0.222208 0.08785,0.139527 0.831991,1.183391 0.397909,0.583943 1.255737,1.694987 0.05168,-0.03617 0.05168,-0.335897 0,-0.397909 -0.06718,-1.198893 -0.06718,-0.806153 -0.06718,-1.204061 0,-0.201538 0.103353,-0.201538 0.206706,0 0.620117,0.0155 0.413411,0.0155 0.620117,0.0155 0.222209,0 0.666626,-0.0155 0.444417,-0.0155 0.666626,-0.0155 0.09302,0 0.09302,0.139526 z" style="font-style:normal;font-variant:normal;font-weight:700;font-stretch:normal;font-family:'Berlin Sans FB';-inkscape-font-specification:'Berlin Sans FB Bold';fill:none;fill-opacity:1;stroke:#000;stroke-width:.5291667;stroke-linejoin:round;stroke-miterlimit:4;stroke-dasharray:none"/><path d="m -21.425296,8.1149254 -0.142593,1.2237813 C -21.781176,9.4456441 -22.802455,8.90097 -24.572998,9.0710043 V 8.1149254 Z" style="opacity:1;vector-effect:none;fill:#e1a143;fill-opacity:1;stroke:none;stroke-width:.45974281;stroke-linecap:round;stroke-linejoin:round;stroke-miterlimit:4;stroke-dasharray:none;stroke-dashoffset:0;stroke-opacity:1;paint-order:fill markers stroke"/><path d="m -27.105055,8.471053 0.595313,-0.631424 v 4.703863 l -0.595313,-0.701583 z" style="opacity:1;vector-effect:none;fill:#eec993;fill-opacity:1;stroke:none;stroke-width:.37541685;stroke-linecap:round;stroke-linejoin:round;stroke-miterlimit:4;stroke-dasharray:none;stroke-dashoffset:0;stroke-opacity:1;paint-order:fill markers stroke"/><path d="m -21.494826,12.854599 h -4.566431 l 0.578806,0.860301 h 3.619294 z" style="font-style:normal;font-variant:normal;font-weight:400;font-stretch:normal;font-size:10.58333302px;line-height:1.25;font-family:Arial;-inkscape-font-specification:Arial;letter-spacing:0;word-spacing:0;display:inline;opacity:1;vector-effect:none;fill:#e1a143;fill-opacity:1;stroke:none;stroke-width:.57062596;stroke-linecap:round;stroke-linejoin:round;stroke-miterlimit:4;stroke-dasharray:none;stroke-dashoffset:0;stroke-opacity:1;paint-order:fill markers stroke"/><path d="m -21.110245,7.212409 c 0,0.07235 0.08191,0.683709 -0.245373,1.27282 -0.323839,0.585667 -0.518486,0.904338 -0.583943,0.956014 -0.05167,0.04134 -0.0999,0.06201 -0.144694,0.06201 -0.01723,0 -0.09302,-0.05684 -0.227377,-0.170532 -0.161919,-0.134359 -0.318671,-0.237712 -0.470255,-0.310059 -0.234267,-0.110243 -0.482314,-0.165365 -0.744141,-0.165365 -0.330729,0 -0.611504,0.120578 -0.842325,0.361735 -0.227377,0.237712 -0.341065,0.521933 -0.341065,0.852662 0,0.334174 0.113688,0.623562 0.341065,0.868164 0.230821,0.241157 0.511596,0.361735 0.842325,0.361735 0.554661,0 0.981853,-0.165365 1.281576,-0.496094 0.04823,-0.05512 0.08441,-0.08268 0.10852,-0.08268 0.04134,0 0.251491,0.279053 0.630453,0.837158 0.382405,0.571886 0.398212,0.976219 0.398212,1.072681 0,0.06546 -0.03962,0.149865 -0.118856,0.253214 -0.272162,0.3514 -0.482617,0.55685 -0.982156,0.756665 -0.451307,0.18259 -0.918118,0.273885 -1.400431,0.273885 -1.064535,0 -1.970595,-0.368625 -2.71818,-1.105876 -0.744141,-0.740695 -0.975894,-1.606509 -0.975894,-2.667598 0,-1.064535 0.231753,-2.003951 0.975894,-2.748092 0.747585,-0.747585 1.653645,-1.121378 2.71818,-1.121378 1.071425,0 1.699202,0.05526 2.374441,0.727057 0.08268,0.07924 0.124024,0.149862 0.124024,0.211874 z" style="font-style:normal;font-variant:normal;font-weight:700;font-stretch:normal;font-family:'Berlin Sans FB';-inkscape-font-specification:'Berlin Sans FB Bold';fill:none;fill-opacity:1;stroke:#000;stroke-width:.5291667;stroke-linejoin:round;stroke-miterlimit:4;stroke-dasharray:none"/><rect style="opacity:1;vector-effect:none;fill:#eec993;fill-opacity:1;stroke:none;stroke-width:.51719028;stroke-linecap:round;stroke-linejoin:round;stroke-miterlimit:4;stroke-dasharray:none;stroke-dashoffset:0;stroke-opacity:1;paint-order:fill markers stroke" width=".595" height="6.398" x="-21.044" y="6.66" ry="0"/><path style="font-style:normal;font-variant:normal;font-weight:400;font-stretch:normal;font-size:10.58333302px;line-height:1.25;font-family:Arial;-inkscape-font-specification:Arial;letter-spacing:0;word-spacing:0;display:inline;opacity:1;vector-effect:none;fill:#e1a143;fill-opacity:1;stroke:none;stroke-width:.45310122;stroke-linecap:round;stroke-linejoin:round;stroke-miterlimit:4;stroke-dasharray:none;stroke-dashoffset:0;stroke-opacity:1;paint-order:fill markers stroke" transform="scale(-1 1)" d="M16.134 10.448H18.799V11.185H16.134z"/><rect ry="0" y="10.939" x="-18.799" height="2.118" width=".595" style="opacity:1;vector-effect:none;fill:#eec993;fill-opacity:1;stroke:none;stroke-width:.29757434;stroke-linecap:round;stroke-linejoin:round;stroke-miterlimit:4;stroke-dasharray:none;stroke-dashoffset:0;stroke-opacity:1;paint-order:fill markers stroke"/><path style="font-style:normal;font-variant:normal;font-weight:400;font-stretch:normal;font-size:10.58333302px;line-height:1.25;font-family:Arial;-inkscape-font-specification:Arial;letter-spacing:0;word-spacing:0;display:inline;opacity:1;vector-effect:none;fill:#e1a143;fill-opacity:1;stroke:none;stroke-width:.45825112;stroke-linecap:round;stroke-linejoin:round;stroke-miterlimit:4;stroke-dasharray:none;stroke-dashoffset:0;stroke-opacity:1;paint-order:fill markers stroke" transform="scale(-1 1)" d="M18.34 12.846H20.942V13.618H18.34z"/><rect ry="0" y="6.66" x="-14.496" height="6.398" width=".595" style="opacity:1;vector-effect:none;fill:#eec993;fill-opacity:1;stroke:none;stroke-width:.51719028;stroke-linecap:round;stroke-linejoin:round;stroke-miterlimit:4;stroke-dasharray:none;stroke-dashoffset:0;stroke-opacity:1;paint-order:fill markers stroke"/><rect style="opacity:1;vector-effect:none;fill:#eec993;fill-opacity:1;stroke:none;stroke-width:.29757434;stroke-linecap:round;stroke-linejoin:round;stroke-miterlimit:4;stroke-dasharray:none;stroke-dashoffset:0;stroke-opacity:1;paint-order:fill markers stroke" width=".595" height="2.118" x="-16.73" y="10.939" ry="0"/><path transform="scale(-1 1)" style="font-style:normal;font-variant:normal;font-weight:400;font-stretch:normal;font-size:10.58333302px;line-height:1.25;font-family:Arial;-inkscape-font-specification:Arial;letter-spacing:0;word-spacing:0;display:inline;opacity:1;vector-effect:none;fill:#e1a143;fill-opacity:1;stroke:none;stroke-width:.45825112;stroke-linecap:round;stroke-linejoin:round;stroke-miterlimit:4;stroke-dasharray:none;stroke-dashoffset:0;stroke-opacity:1;paint-order:fill markers stroke" d="M13.95 12.846H16.552V13.618H13.95z"/><rect ry="0" y="6.66" x="-18.882" height="2.776" width=".595" style="opacity:1;vector-effect:none;fill:#eec993;fill-opacity:1;stroke:none;stroke-width:.340689;stroke-linecap:round;stroke-linejoin:round;stroke-miterlimit:4;stroke-dasharray:none;stroke-dashoffset:0;stroke-opacity:1;paint-order:fill markers stroke"/><rect style="opacity:1;vector-effect:none;fill:#eec993;fill-opacity:1;stroke:none;stroke-width:.340689;stroke-linecap:round;stroke-linejoin:round;stroke-miterlimit:4;stroke-dasharray:none;stroke-dashoffset:0;stroke-opacity:1;paint-order:fill markers stroke" width=".595" height="2.776" x="-16.65" y="6.66" ry="0"/><rect transform="rotate(90)" ry="0" y="16.054" x="9.014" height="2.828" width=".422" style="opacity:1;vector-effect:none;fill:#eec993;fill-opacity:1;stroke:none;stroke-width:.28938878;stroke-linecap:round;stroke-linejoin:round;stroke-miterlimit:4;stroke-dasharray:none;stroke-dashoffset:0;stroke-opacity:1;paint-order:fill markers stroke"/><path d="m -13.792341,13.565022 q 0,0.15503 -0.149862,0.15503 -0.217041,0 -0.645955,-0.02067 -0.428914,-0.02584 -0.640788,-0.02584 -0.222208,0 -0.661458,0.02067 -0.434082,0.02067 -0.651123,0.02067 -0.160197,0 -0.160197,-0.191203 0,-0.346232 0.04651,-1.043864 0.04651,-0.702799 0.04651,-1.049031 0,-0.206706 -0.124024,-0.232544 -0.19637,-0.04651 -0.718302,-0.04651 -0.5271,0 -0.733806,0.04651 -0.124023,0.02584 -0.124023,0.232544 0,0.346232 0.03101,1.049031 0.03101,0.697632 0.03101,1.043864 0,0.191203 -0.160197,0.191203 -0.222209,0 -0.666626,-0.02067 -0.444417,-0.02067 -0.666626,-0.02067 -0.201538,0 -0.609782,0.02067 -0.403076,0.02067 -0.604614,0.02067 -0.170532,0 -0.170532,-0.149862 0,-0.563273 0.05168,-1.689819 0.05168,-1.131714 0.05168,-1.694987 0,-0.599446 -0.05168,-1.79834 -0.04651,-1.204061 -0.04651,-1.803507 0,-0.113688 0.124024,-0.113688 0.217041,0 0.651123,0.02067 0.439249,0.02067 0.65629,0.02067 0.232544,0 0.692464,-0.02067 0.459921,-0.02584 0.692465,-0.02584 0.08268,0 0.08268,0.103353 0,0.3514 -0.07751,1.059367 -0.07235,0.702799 -0.07235,1.054199 0,0.08785 0.09302,0.10852 0.211873,0.04134 0.826823,0.04134 0.573608,0 0.769979,-0.04134 0.129191,-0.03101 0.129191,-0.201538 0,-0.325561 -0.04651,-0.976684 -0.04134,-0.656291 -0.04134,-0.981852 0,-0.165365 0.08268,-0.165365 0.217041,0 0.661458,0.02584 0.444418,0.02067 0.666626,0.02067 0.217041,0 0.651123,-0.02067 0.434082,-0.02067 0.645956,-0.02067 0.134358,0 0.134358,0.124023 0,0.599447 -0.05168,1.79834 -0.04651,1.193726 -0.04651,1.793172 0,0.563273 0.05168,1.694987 0.05168,1.126546 0.05168,1.689819 z" style="font-style:normal;font-variant:normal;font-weight:700;font-stretch:normal;font-family:'Berlin Sans FB';-inkscape-font-specification:'Berlin Sans FB Bold';fill:none;fill-opacity:1;stroke:#000;stroke-width:.5291667;stroke-linejoin:round;stroke-miterlimit:4;stroke-dasharray:none"/><path d="m -45.47242,17.262005 3.691514,-0.297656 -0.260449,1.609255 -3.629503,-0.0124 z" style="opacity:1;vector-effect:none;fill:#fceaaa;fill-opacity:1;stroke:none;stroke-width:.52916664;stroke-linecap:round;stroke-linejoin:round;stroke-miterlimit:4;stroke-dasharray:none;stroke-dashoffset:0;stroke-opacity:1;paint-order:fill markers stroke"/><path style="opacity:1;vector-effect:none;fill:#f99146;fill-opacity:1;stroke:none;stroke-width:.54865164;stroke-linecap:round;stroke-linejoin:round;stroke-miterlimit:4;stroke-dasharray:none;stroke-dashoffset:0;stroke-opacity:1;paint-order:fill markers stroke" d="M-45.911 18.536H-42.178V19.429H-45.911z"/><path style="opacity:1;vector-effect:none;fill:#e9b15e;fill-opacity:1;stroke:none;stroke-width:.4019309;stroke-linecap:round;stroke-linejoin:round;stroke-miterlimit:4;stroke-dasharray:none;stroke-dashoffset:0;stroke-opacity:1;paint-order:fill markers stroke" d="M-41.648 14.014H-40.904V21.158H-41.648z"/><path style="opacity:1;vector-effect:none;fill:#f99146;fill-opacity:1;stroke:none;stroke-width:.62237281;stroke-linecap:round;stroke-linejoin:round;stroke-miterlimit:4;stroke-dasharray:none;stroke-dashoffset:0;stroke-opacity:1;paint-order:fill markers stroke" d="M-41.561 20.48H-36.475V21.323H-41.561z"/><path style="opacity:1;vector-effect:none;fill:#e9b15e;fill-opacity:1;stroke:none;stroke-width:.4019309;stroke-linecap:round;stroke-linejoin:round;stroke-miterlimit:4;stroke-dasharray:none;stroke-dashoffset:0;stroke-opacity:1;paint-order:fill markers stroke" d="M-35.794 14.014H-35.05V21.158H-35.794zM-33.612 14.014H-32.868V21.158H-33.612z"/><path style="opacity:1;vector-effect:none;fill:#f99146;fill-opacity:1;stroke:none;stroke-width:.45938185;stroke-linecap:round;stroke-linejoin:round;stroke-miterlimit:4;stroke-dasharray:none;stroke-dashoffset:0;stroke-opacity:1;paint-order:fill markers stroke" d="M-35.738 20.48H-32.967V21.323H-35.738z"/><path style="opacity:1;vector-effect:none;fill:#e9b15e;fill-opacity:1;stroke:none;stroke-width:.4019309;stroke-linecap:round;stroke-linejoin:round;stroke-miterlimit:4;stroke-dasharray:none;stroke-dashoffset:0;stroke-opacity:1;paint-order:fill markers stroke" d="M-32.549 14.014H-31.805V21.158H-32.549z"/><path style="opacity:1;vector-effect:none;fill:#f99146;fill-opacity:1;stroke:none;stroke-width:.45938185;stroke-linecap:round;stroke-linejoin:round;stroke-miterlimit:4;stroke-dasharray:none;stroke-dashoffset:0;stroke-opacity:1;paint-order:fill markers stroke" d="M-32.441 20.48H-29.67V21.323H-32.441z"/><path style="opacity:1;vector-effect:none;fill:#e9b15e;fill-opacity:1;stroke:none;stroke-width:.21010314;stroke-linecap:round;stroke-linejoin:round;stroke-miterlimit:4;stroke-dasharray:none;stroke-dashoffset:0;stroke-opacity:1;paint-order:fill markers stroke" d="M-24.714 19.206H-23.97V21.158H-24.714z"/><path transform="scale(-1 1)" style="opacity:1;vector-effect:none;fill:#e9b15e;fill-opacity:1;stroke:none;stroke-width:.21010314;stroke-linecap:round;stroke-linejoin:round;stroke-miterlimit:4;stroke-dasharray:none;stroke-dashoffset:0;stroke-opacity:1;paint-order:fill markers stroke" d="M21.927 19.206H22.671V21.158H21.927z"/><path transform="scale(-1 1)" style="opacity:1;vector-effect:none;fill:#e9b15e;fill-opacity:1;stroke:none;stroke-width:.11445514;stroke-linecap:round;stroke-linejoin:round;stroke-miterlimit:4;stroke-dasharray:none;stroke-dashoffset:0;stroke-opacity:1;paint-order:fill markers stroke" d="M21.892 18.68H22.391V19.545H21.892z"/><path transform="scale(-1 1)" style="opacity:1;vector-effect:none;fill:#e9b15e;fill-opacity:1;stroke:none;stroke-width:.08979396;stroke-linecap:round;stroke-linejoin:round;stroke-miterlimit:4;stroke-dasharray:none;stroke-dashoffset:0;stroke-opacity:1;paint-order:fill markers stroke" d="M21.699 18.22H22.057V18.961H21.699z"/><path transform="scale(-1 1)" style="opacity:1;vector-effect:none;fill:#e9b15e;fill-opacity:1;stroke:none;stroke-width:.08979396;stroke-linecap:round;stroke-linejoin:round;stroke-miterlimit:4;stroke-dasharray:none;stroke-dashoffset:0;stroke-opacity:1;paint-order:fill markers stroke" d="M21.419 17.816H21.777V18.557H21.419z"/><path transform="scale(-1 1)" style="opacity:1;vector-effect:none;fill:#e9b15e;fill-opacity:1;stroke:none;stroke-width:.08979396;stroke-linecap:round;stroke-linejoin:round;stroke-miterlimit:4;stroke-dasharray:none;stroke-dashoffset:0;stroke-opacity:1;paint-order:fill markers stroke" d="M21.146 17.395H21.504V18.136H21.146z"/><path transform="scale(-1 1)" style="opacity:1;vector-effect:none;fill:#e9b15e;fill-opacity:1;stroke:none;stroke-width:.08979396;stroke-linecap:round;stroke-linejoin:round;stroke-miterlimit:4;stroke-dasharray:none;stroke-dashoffset:0;stroke-opacity:1;paint-order:fill markers stroke" d="M20.898 16.948H21.256V17.689H20.898z"/><path transform="scale(-1 1)" style="opacity:1;vector-effect:none;fill:#e9b15e;fill-opacity:1;stroke:none;stroke-width:.08979396;stroke-linecap:round;stroke-linejoin:round;stroke-miterlimit:4;stroke-dasharray:none;stroke-dashoffset:0;stroke-opacity:1;paint-order:fill markers stroke" d="M20.662 16.477H21.02V17.218H20.662z"/><path style="opacity:1;vector-effect:none;fill:#f99146;fill-opacity:1;stroke:none;stroke-width:.45938185;stroke-linecap:round;stroke-linejoin:round;stroke-miterlimit:4;stroke-dasharray:none;stroke-dashoffset:0;stroke-opacity:1;paint-order:fill markers stroke" d="M-24.723 20.48H-21.952V21.323H-24.723z"/><path style="opacity:1;vector-effect:none;fill:#e9b15e;fill-opacity:1;stroke:none;stroke-width:.34080866;stroke-linecap:round;stroke-linejoin:round;stroke-miterlimit:4;stroke-dasharray:none;stroke-dashoffset:0;stroke-opacity:1;paint-order:fill markers stroke" d="M-39.653 14.014H-38.978V19.678H-39.653z"/><path transform="rotate(90)" style="opacity:1;vector-effect:none;fill:#e9b15e;fill-opacity:1;stroke:none;stroke-width:.2446892;stroke-linecap:round;stroke-linejoin:round;stroke-miterlimit:4;stroke-dasharray:none;stroke-dashoffset:0;stroke-opacity:1;paint-order:fill markers stroke" d="M19.074 36.39H19.678V39.653H19.074z"/><path style="opacity:1;vector-effect:none;fill:#e9b15e;fill-opacity:1;stroke:none;stroke-width:.22468619;stroke-linecap:round;stroke-linejoin:round;stroke-miterlimit:4;stroke-dasharray:none;stroke-dashoffset:0;stroke-opacity:1;paint-order:fill markers stroke" d="M-28.183 16.693H-27.439V18.925H-28.183z"/><path style="opacity:1;vector-effect:none;fill:#f99146;fill-opacity:1;stroke:none;stroke-width:.42105037;stroke-linecap:round;stroke-linejoin:round;stroke-miterlimit:4;stroke-dasharray:none;stroke-dashoffset:0;stroke-opacity:1;paint-order:fill markers stroke" d="M-30.052 18.121H-27.579V18.915H-30.052z"/><path style="opacity:1;vector-effect:none;fill:#e9b15e;fill-opacity:1;stroke:none;stroke-width:.22468619;stroke-linecap:round;stroke-linejoin:round;stroke-miterlimit:4;stroke-dasharray:none;stroke-dashoffset:0;stroke-opacity:1;paint-order:fill markers stroke" d="M-27.804 14.089H-27.06V16.321H-27.804z"/><path style="opacity:1;vector-effect:none;fill:#f99146;fill-opacity:1;stroke:none;stroke-width:.45357427;stroke-linecap:round;stroke-linejoin:round;stroke-miterlimit:4;stroke-dasharray:none;stroke-dashoffset:0;stroke-opacity:1;paint-order:fill markers stroke" d="M-29.953 15.492H-27.083V16.286H-29.953z"/><path style="opacity:1;vector-effect:none;fill:#e9b15e;fill-opacity:1;stroke:none;stroke-width:.11445514;stroke-linecap:round;stroke-linejoin:round;stroke-miterlimit:4;stroke-dasharray:none;stroke-dashoffset:0;stroke-opacity:1;paint-order:fill markers stroke" d="M-24.75 18.68H-24.251V19.545H-24.75z"/><path style="opacity:1;vector-effect:none;fill:#e9b15e;fill-opacity:1;stroke:none;stroke-width:.08979396;stroke-linecap:round;stroke-linejoin:round;stroke-miterlimit:4;stroke-dasharray:none;stroke-dashoffset:0;stroke-opacity:1;paint-order:fill markers stroke" d="M-24.943 18.22H-24.585V18.961H-24.943z"/><path style="opacity:1;vector-effect:none;fill:#e9b15e;fill-opacity:1;stroke:none;stroke-width:.08979396;stroke-linecap:round;stroke-linejoin:round;stroke-miterlimit:4;stroke-dasharray:none;stroke-dashoffset:0;stroke-opacity:1;paint-order:fill markers stroke" d="M-25.223 17.816H-24.865V18.557H-25.223z"/><path style="opacity:1;vector-effect:none;fill:#e9b15e;fill-opacity:1;stroke:none;stroke-width:.08979396;stroke-linecap:round;stroke-linejoin:round;stroke-miterlimit:4;stroke-dasharray:none;stroke-dashoffset:0;stroke-opacity:1;paint-order:fill markers stroke" d="M-25.496 17.395H-25.138V18.136H-25.496z"/><path style="opacity:1;vector-effect:none;fill:#e9b15e;fill-opacity:1;stroke:none;stroke-width:.08979396;stroke-linecap:round;stroke-linejoin:round;stroke-miterlimit:4;stroke-dasharray:none;stroke-dashoffset:0;stroke-opacity:1;paint-order:fill markers stroke" d="M-25.744 16.948H-25.386V17.689H-25.744z"/><path style="opacity:1;vector-effect:none;fill:#e9b15e;fill-opacity:1;stroke:none;stroke-width:.08979396;stroke-linecap:round;stroke-linejoin:round;stroke-miterlimit:4;stroke-dasharray:none;stroke-dashoffset:0;stroke-opacity:1;paint-order:fill markers stroke" d="M-25.98 16.477H-25.622V17.218H-25.98z"/><path style="opacity:1;vector-effect:none;fill:#e9b15e;fill-opacity:1;stroke:none;stroke-width:.21081837;stroke-linecap:round;stroke-linejoin:round;stroke-miterlimit:4;stroke-dasharray:none;stroke-dashoffset:0;stroke-opacity:1;paint-order:fill markers stroke" d="M-26.506 14.249H-25.92V16.744H-26.506z"/><path transform="scale(-1 1)" style="opacity:1;vector-effect:none;fill:#e9b15e;fill-opacity:1;stroke:none;stroke-width:.20441416;stroke-linecap:round;stroke-linejoin:round;stroke-miterlimit:4;stroke-dasharray:none;stroke-dashoffset:0;stroke-opacity:1;paint-order:fill markers stroke" d="M20.212 14.249H20.763V16.744H20.212z"/><g style="fill:none;fill-opacity:1;stroke-width:.5291667;stroke-miterlimit:4;stroke-dasharray:none"><g style="fill:none;fill-opacity:1"><path style="font-style:normal;font-variant:normal;font-weight:700;font-stretch:normal;font-family:'Berlin Sans FB';-inkscape-font-specification:'Berlin Sans FB Bold';fill:none;fill-opacity:1;stroke:#000;stroke-width:.5291667;stroke-linecap:round;stroke-linejoin:round;stroke-miterlimit:4;stroke-dasharray:none" d="m 44.527156,43.11215 q 0,1.059367 -0.180867,2.247925 -0.03101,0.186035 -0.160197,0.186035 0.08268,0 -0.744141,-0.05684 -1.178222,-0.08785 -1.881022,-0.08785 -0.377238,0 -1.131714,0.02067 -0.754476,0.02067 -1.131714,0.02067 -0.160196,0 -0.175699,-0.201538 0.01033,0.144694 0.01033,-0.361735 l -0.0052,-2.971395 q 0,-0.563273 -0.05168,-1.803507 -0.04651,-1.193726 -0.04651,-1.79834 0,-0.113688 0.124023,-0.113688 0.217041,0 0.651124,0.02067 0.439249,0.02067 0.65629,0.02067 0.232544,0 0.692464,-0.02067 0.459921,-0.02584 0.692465,-0.02584 0.08268,0 0.08268,0.108521 l -0.0052,0.05684 q -0.06718,0.873331 -0.149861,2.625162 -0.01034,0.671794 -0.01034,1.059367 0,0.434082 0.02067,1.012858 0.01033,0.201538 0.08785,0.201538 0.54777,0 1.193725,-0.06201 0.733806,-0.07235 1.291911,-0.201538 0.04651,-0.01034 0.07752,-0.01034 0.09302,0 0.09302,0.134359 z" transform="translate(-80.77 -24.083)"/><path style="font-style:normal;font-variant:normal;font-weight:700;font-stretch:normal;font-family:'Berlin Sans FB';-inkscape-font-specification:'Berlin Sans FB Bold';fill:none;fill-opacity:1;stroke:#000;stroke-width:.5291667;stroke-linejoin:round;stroke-miterlimit:4;stroke-dasharray:none" d="M47.892 45.293q0 .155-.15.155-.222 0-.672-.021-.444-.026-.672-.026-.212 0-.641.021-.424.021-.636.021-.171 0-.171-.15 0-.63.052-1.902.052-1.271.052-1.907 0-.532-.052-1.592-.047-1.065-.047-1.586 0-.114.124-.114.227 0 .682.021.46.021.692.021.217 0 .651-.021.434-.021.646-.021.134 0 .134.124 0 .527-.052 1.586-.047 1.054-.047 1.581 0 .636.052 1.907.052 1.271.052 1.902zM53.843 40.404q0 .109-.109.109-.041 0-.145-.01-1.302-.181-1.891-.181-.424 0-.403-.005-.3.026-.3.176 0 .238.486.295.093.01.656.01.434 0 .754-.031.455-.041.346-.041.14 0 .14.176 0 .165-.026.501-.021.336-.021.501 0 .165.01.491.01.326.01.486 0 .119-.16.119.047 0-.45-.062-.553-.072-1.276-.072-.47 0-.47.258 0 .806.036 1.509.005.083.036.362.021.233.021.367 0 .119-.186.119-.057 0-.15-.015-.45-.062-1.24-.062-.196 0-.594.021-.393.021-.589.021-.171 0-.171-.15 0 .109.047-.941.078-1.788.078-2.553 0-.512-.145-3.416l-.005-.067q-.005-.124.129-.124.408 0 1.225.021.822.021 1.235.021.429 0 1.287-.072.863-.072 1.292-.072.315 0 .362.336-.01.284.021.837.16 1.013.16 1.142zM60.752 38.284q0 .279-.026.842-.026.563-.026.842 0 .279-.078.444-.739 1.659-1.638 2.816-.191.248-.191.393 0 .274.036.822.036.548.036.816 0 .155-.15.155-.222 0-.672-.021-.444-.026-.667-.026-.217 0-.646.021-.424.021-.636.021-.171 0-.171-.15 0-.269.052-.816.052-.548.052-.822 0-.165-.124-.413-.31-.486-.878-1.406-.331-.563-.687-1.24-.114-.212-.119-.362-.005-.279-.067-.925-.057-.599-.057-.925 0-.191.119-.191.202 0 .605.021.408.021.61.021.243 0 .739-.021.496-.026.739-.026.078 0 .078.114-.021.765-.021 1.509 0 .129.186.455.16.284.279.413.114-.129.269-.398.176-.31.176-.434 0-.258-.036-.775-.031-.517-.031-.77 0-.114.078-.114.222 0 .667.026.444.021.667.021.233 0 .703-.021.47-.021.703-.021.129 0 .129.124z" transform="translate(-80.77 -24.083)"/><g style="font-style:normal;font-variant:normal;font-weight:700;font-stretch:normal;font-size:10.58333302px;line-height:1.25;font-family:'Berlin Sans FB';-inkscape-font-specification:'Berlin Sans FB Bold';letter-spacing:0;word-spacing:0;fill:none;fill-opacity:1;stroke:#000;stroke-width:.5291667;stroke-linejoin:round;stroke-miterlimit:4;stroke-dasharray:none" aria-label="-"><path style="font-style:normal;font-variant:normal;font-weight:700;font-stretch:normal;font-family:'Berlin Sans FB';-inkscape-font-specification:'Berlin Sans FB Bold';fill:none;fill-opacity:1;stroke:#000;stroke-width:.5291667;stroke-linejoin:round;stroke-miterlimit:4;stroke-dasharray:none" d="m 10.513745,33.732648 c 0,0.14814 -0.03101,0.33762 -0.09302,0.568441 -0.05512,0.186036 -0.108519,0.373793 -0.160197,0.563273 -0.07924,0.33073 -0.118856,0.668349 -0.118856,1.012858 0,0.05857 -0.04479,0.08785 -0.134359,0.08785 -0.1343582,0 -0.6459549,-0.05305 -0.9146723,-0.05994 -0.2687175,-0.0069 -0.4702556,-0.01034 -0.6046143,-0.01034 -0.2962782,0 -0.8078748,0.04995 -1.5347899,0.149861 -0.3892958,0.05512 -0.5856663,0.08268 -0.5891114,0.08268 -0.099908,0 -0.1498616,-0.113688 -0.1498616,-0.341065 0,-0.120578 0.075792,-0.458197 0.2273763,-1.012858 0.1481391,-0.53399 0.2532145,-0.866442 0.3152262,-0.997355 0.027561,-0.06201 0.072347,-0.09302 0.1343587,-0.09302 0.1102431,0 0.2876655,0.01206 0.5322673,0.03617 0.2273763,0.02411 0.4030761,0.03445 0.5270996,0.03101 l 0.129191,-0.0052 c 0.1274685,-0.0035 0.6063368,-0.06376 1.4366048,-0.180867 0.3548451,-0.04823 0.8595516,-0.02274 0.8940026,-0.02274 0.0689,0 0.103353,0.06373 0.103353,0.191202 z" transform="translate(-52.178 -16.528)"/></g></g></g></g><path style="fill:#b1da33;fill-opacity:1;stroke:none;stroke-width:.28108886px;stroke-linecap:butt;stroke-linejoin:miter;stroke-opacity:1" d="m 7.4550475,16.363638 0.263521,6.350852 c 0.732278,0.828887 1.008655,1.918289 2.5825045,2.266278 l 2.793321,-0.790562 2.239926,-3.16225 -0.500689,-2.371687 -2.266279,-1.502068 z"/><path style="fill:none;stroke:#4a0;stroke-width:.28108886px;stroke-linecap:butt;stroke-linejoin:miter;stroke-opacity:1" d="m 7.3660185,16.630112 c 0,0 1.872187,1.516684 2.9262705,2.62347 1.054083,1.106788 1.2649,2.002759 1.2649,2.002759 0,0 0.948675,0.10541 1.001379,0.63245 0.0527,0.527041 0.210817,0.685154 0.210817,0.685154 l 0.930707,0.895629"/><path style="fill:none;stroke:#4a0;stroke-width:.28108886px;stroke-linecap:round;stroke-linejoin:miter;stroke-opacity:1" d="M11.249 20.573C7.82 19.94 7.82 20.275 7.82 20.275M11.557 21.256c0 0-3.066.323-3.402.733M12.752 22.6c0 0-1.212.132-1.423.237-.211.105-.791.237-.791.237-.546.067-1.265-.105-1.265-.105"/><path style="fill:none;stroke:#000;stroke-width:.5291667;stroke-linecap:round;stroke-linejoin:round;stroke-miterlimit:4;stroke-dasharray:none;stroke-opacity:1" d="m 15.136742,21.728346 c 0,0 0.29814,-2.086978 0,-2.385118 C 14.838603,19.045088 14.093253,17.55439 12.751624,17.405319 11.409995,17.25625 9.6211565,16.95811 8.7267365,16.65997 c -0.894419,-0.298139 -1.788838,-1.043489 -1.341629,0 0.44721,1.043489 -0.14907,2.981398 0.29814,5.068376 0.44721,2.086979 1.639769,2.981398 2.236048,3.130467 0.5962805,0.149071 2.0869785,0.149071 2.9813985,-0.596279 0.894419,-0.745349 2.236048,-2.534188 2.236048,-2.534188 z"/><path style="fill:none;stroke:#4a0;stroke-width:.28108886px;stroke-linecap:round;stroke-linejoin:miter;stroke-opacity:1" d="M12.488 21.634c0 0 .659-.764.632-.975-.026-.211 0-1.08 0-1.08M11.487 20.87c.015.005.383-.733.211-1.344.026-.474 0-.606 0-.606"/><path d="m 34.581889,63.392647 -3.030581,-3.801282 0.505095,-4.211226 4.906655,0.07454 c 1.159677,1.018569 0.854365,2.64755 0.974115,4.099423 -0.68293,1.333952 -1.928674,2.597553 -3.355284,3.838545 z" style="display:inline;fill:#b1da33;fill-opacity:1;stroke:none;stroke-width:.27656803px;stroke-linecap:butt;stroke-linejoin:miter;stroke-opacity:1"/><path d="m 34.711945,55.472637 c 0.01656,2.483175 -0.201545,5.223997 -0.0063,7.617811" style="display:inline;fill:none;stroke:#4a0;stroke-width:.28108886;stroke-linecap:round;stroke-linejoin:miter;stroke-miterlimit:4;stroke-dasharray:none;stroke-opacity:1"/><path d="M34.744 58.933c0 0-.708-.186-.894.149-.186.335-1.006.522-1.006.783 0 .261-.335.82-.335.82M34.744 58.933c0 0 .708-.186.894.149.186.335 1.006.522 1.006.783 0 .261.335.82.335.82M34.707 56.585c0 0-.41.559-.745.634-.335.075-1.006.596-1.379 1.155-.373.559-.745.82-.745.82M34.707 56.585c0 0 .41.559.745.634.335.075 1.006.596 1.379 1.155.373.559.745.82.745.82" style="display:inline;fill:none;stroke:#4a0;stroke-width:.28108886px;stroke-linecap:round;stroke-linejoin:miter;stroke-opacity:1"/><path d="m 34.681775,63.392647 c 0,0 -3.167736,-2.459653 -3.0932,-4.770236 0.07454,-2.310585 0.260873,-2.944132 0.633547,-3.093202 0.372675,-0.14907 4.670125,-0.155464 5.117334,0.10541 0.670466,1.493431 0.684047,2.324538 0.58614,3.358462 -0.147257,1.503726 -2.814197,4.406128 -3.243821,4.399566 z" style="display:inline;fill:none;stroke:#000;stroke-width:.5291667;stroke-linecap:round;stroke-linejoin:round;stroke-miterlimit:4;stroke-dasharray:none;stroke-opacity:1"/></g></svg>